<?xml version="1.0" encoding="UTF-8"?>
<!DOCTYPE svg PUBLIC "-//W3C//DTD SVG 1.1//EN" "http://www.w3.org/Graphics/SVG/1.1/DTD/svg11.dtd">
<svg version="1.1" xmlns="http://www.w3.org/2000/svg" xmlns:xlink="http://www.w3.org/1999/xlink" x="0" y="0" width="582" height="328" viewBox="0, 0, 582, 328">
  <g id="Layer_1">
    <path d="M516.082,103.566 C520.331,103.566 523.773,101.543 523.773,99.046 C523.773,96.548 520.331,94.525 516.082,94.525 C511.833,94.525 508.389,96.548 508.389,99.046 C508.389,101.543 511.833,103.566 516.082,103.566 M516.082,77.414 C520.331,77.414 523.773,75.392 523.773,72.895 C523.773,70.397 520.331,68.374 516.082,68.374 C511.833,68.374 508.389,70.397 508.389,72.895 C508.389,75.392 511.833,77.414 516.082,77.414 M464.462,103.566 C468.71,103.566 472.153,101.543 472.153,99.046 C472.153,96.548 468.71,94.525 464.462,94.525 C460.213,94.525 456.771,96.548 456.771,99.046 C456.771,101.543 460.213,103.566 464.462,103.566 M464.462,77.414 C468.71,77.414 472.153,75.392 472.153,72.895 C472.153,70.397 468.71,68.374 464.462,68.374 C460.213,68.374 456.771,70.397 456.771,72.895 C456.771,75.392 460.213,77.414 464.462,77.414 M412.842,103.566 C417.091,103.566 420.534,101.543 420.534,99.046 C420.534,96.548 417.091,94.525 412.842,94.525 C408.594,94.525 405.152,96.548 405.152,99.046 C405.152,101.543 408.594,103.566 412.842,103.566 M412.842,77.414 C417.091,77.414 420.534,75.392 420.534,72.895 C420.534,70.397 417.091,68.374 412.842,68.374 C408.594,68.374 405.152,70.397 405.152,72.895 C405.152,75.392 408.594,77.414 412.842,77.414 M361.223,103.566 C365.472,103.566 368.917,101.543 368.917,99.046 C368.917,96.548 365.472,94.525 361.223,94.525 C356.974,94.525 353.532,96.548 353.532,99.046 C353.532,101.543 356.974,103.566 361.223,103.566 M361.223,77.414 C365.472,77.414 368.917,75.392 368.917,72.895 C368.917,70.397 365.472,68.374 361.223,68.374 C356.974,68.374 353.532,70.397 353.532,72.895 C353.532,75.392 356.974,77.414 361.223,77.414 M309.605,103.566 C313.852,103.566 317.297,101.543 317.297,99.046 C317.297,96.548 313.852,94.525 309.605,94.525 C305.356,94.525 301.915,96.548 301.915,99.046 C301.915,101.543 305.356,103.566 309.605,103.566 M309.605,77.414 C313.852,77.414 317.297,75.392 317.297,72.895 C317.297,70.397 313.852,68.374 309.605,68.374 C305.356,68.374 301.915,70.397 301.915,72.895 C301.915,75.392 305.356,77.414 309.605,77.414 M257.987,103.566 C262.233,103.566 265.679,101.543 265.679,99.046 C265.679,96.548 262.233,94.525 257.987,94.525 C253.738,94.525 250.294,96.548 250.294,99.046 C250.294,101.543 253.738,103.566 257.987,103.566 M257.987,77.414 C262.233,77.414 265.679,75.392 265.679,72.895 C265.679,70.397 262.233,68.374 257.987,68.374 C253.738,68.374 250.294,70.397 250.294,72.895 C250.294,75.392 253.738,77.414 257.987,77.414 M206.367,103.566 C210.615,103.566 214.059,101.543 214.059,99.046 C214.059,96.548 210.615,94.525 206.367,94.525 C202.118,94.525 198.676,96.548 198.676,99.046 C198.676,101.543 202.118,103.566 206.367,103.566 M206.367,77.414 C210.615,77.414 214.059,75.392 214.059,72.895 C214.059,70.397 210.615,68.374 206.367,68.374 C202.118,68.374 198.676,70.397 198.676,72.895 C198.676,75.392 202.118,77.414 206.367,77.414 M154.747,103.566 C158.995,103.566 162.438,101.543 162.438,99.046 C162.438,96.548 158.995,94.525 154.747,94.525 C150.5,94.525 147.056,96.548 147.056,99.046 C147.056,101.543 150.5,103.566 154.747,103.566 M154.747,77.414 C158.995,77.414 162.438,75.392 162.438,72.895 C162.438,70.397 158.995,68.374 154.747,68.374 C150.5,68.374 147.056,70.397 147.056,72.895 C147.056,75.392 150.5,77.414 154.747,77.414 M103.128,103.566 C107.376,103.566 110.821,101.542 110.821,99.046 C110.821,96.548 107.376,94.525 103.128,94.525 C98.88,94.525 95.438,96.548 95.438,99.046 C95.438,101.542 98.88,103.566 103.128,103.566 M103.128,77.414 C107.376,77.414 110.821,75.392 110.821,72.895 C110.821,70.397 107.376,68.374 103.128,68.374 C98.88,68.374 95.438,70.397 95.438,72.895 C95.438,75.392 98.88,77.414 103.128,77.414 M516.082,291.24 C520.331,291.24 523.773,289.216 523.773,286.72 C523.773,284.224 520.331,282.2 516.082,282.2 C511.833,282.2 508.389,284.224 508.389,286.72 C508.389,289.216 511.833,291.24 516.082,291.24 M516.082,265.088 C520.331,265.088 523.773,263.065 523.773,260.569 C523.773,258.073 520.331,256.048 516.082,256.048 C511.833,256.048 508.389,258.073 508.389,260.569 C508.389,263.065 511.833,265.088 516.082,265.088 M516.082,238.938 C520.331,238.938 523.773,236.914 523.773,234.418 C523.773,231.921 520.331,229.897 516.082,229.897 C511.833,229.897 508.389,231.921 508.389,234.418 C508.389,236.914 511.833,238.938 516.082,238.938 M516.082,212.787 C520.331,212.787 523.773,210.762 523.773,208.266 C523.773,205.77 520.331,203.746 516.082,203.746 C511.833,203.746 508.389,205.77 508.389,208.266 C508.389,210.762 511.833,212.787 516.082,212.787 M516.082,186.635 C520.331,186.635 523.773,184.611 523.773,182.115 C523.773,179.619 520.331,177.595 516.082,177.595 C511.833,177.595 508.389,179.619 508.389,182.115 C508.389,184.611 511.833,186.635 516.082,186.635 M464.462,291.24 C468.71,291.24 472.153,289.216 472.153,286.72 C472.153,284.224 468.71,282.2 464.462,282.2 C460.213,282.2 456.771,284.224 456.771,286.72 C456.771,289.216 460.213,291.24 464.462,291.24 M464.462,265.088 C468.71,265.088 472.153,263.065 472.153,260.569 C472.153,258.073 468.71,256.048 464.462,256.048 C460.213,256.048 456.771,258.073 456.771,260.569 C456.771,263.065 460.213,265.088 464.462,265.088 M464.462,238.938 C468.71,238.938 472.153,236.914 472.153,234.418 C472.153,231.921 468.71,229.897 464.462,229.897 C460.213,229.897 456.771,231.921 456.771,234.418 C456.771,236.914 460.213,238.938 464.462,238.938 M464.462,212.787 C468.71,212.787 472.153,210.762 472.153,208.266 C472.153,205.77 468.71,203.746 464.462,203.746 C460.213,203.746 456.771,205.77 456.771,208.266 C456.771,210.762 460.213,212.787 464.462,212.787 M464.462,186.635 C468.71,186.635 472.153,184.611 472.153,182.115 C472.153,179.619 468.71,177.595 464.462,177.595 C460.213,177.595 456.771,179.619 456.771,182.115 C456.771,184.611 460.213,186.635 464.462,186.635 M412.842,291.24 C417.091,291.24 420.534,289.216 420.534,286.72 C420.534,284.224 417.091,282.2 412.842,282.2 C408.594,282.2 405.152,284.224 405.152,286.72 C405.152,289.216 408.594,291.24 412.842,291.24 M412.842,265.088 C417.091,265.088 420.534,263.065 420.534,260.569 C420.534,258.073 417.091,256.048 412.842,256.048 C408.594,256.048 405.152,258.073 405.152,260.569 C405.152,263.065 408.594,265.088 412.842,265.088 M412.842,238.938 C417.091,238.938 420.534,236.914 420.534,234.418 C420.534,231.921 417.091,229.897 412.842,229.897 C408.594,229.897 405.152,231.921 405.152,234.418 C405.152,236.914 408.594,238.938 412.842,238.938 M412.842,212.787 C417.091,212.787 420.534,210.762 420.534,208.266 C420.534,205.77 417.091,203.746 412.842,203.746 C408.594,203.746 405.152,205.77 405.152,208.266 C405.152,210.762 408.594,212.787 412.842,212.787 M412.842,186.635 C417.091,186.635 420.534,184.611 420.534,182.115 C420.534,179.619 417.091,177.595 412.842,177.595 C408.594,177.595 405.152,179.619 405.152,182.115 C405.152,184.611 408.594,186.635 412.842,186.635 M361.223,291.24 C365.472,291.24 368.917,289.216 368.917,286.72 C368.917,284.224 365.472,282.2 361.223,282.2 C356.974,282.2 353.532,284.224 353.532,286.72 C353.532,289.216 356.974,291.24 361.223,291.24 M361.223,265.088 C365.472,265.088 368.917,263.065 368.917,260.569 C368.917,258.073 365.472,256.048 361.223,256.048 C356.974,256.048 353.532,258.073 353.532,260.569 C353.532,263.065 356.974,265.088 361.223,265.088 M361.223,238.938 C365.472,238.938 368.917,236.914 368.917,234.418 C368.917,231.921 365.472,229.897 361.223,229.897 C356.974,229.897 353.532,231.921 353.532,234.418 C353.532,236.914 356.974,238.938 361.223,238.938 M361.223,212.787 C365.472,212.787 368.917,210.762 368.917,208.266 C368.917,205.77 365.472,203.746 361.223,203.746 C356.974,203.746 353.532,205.77 353.532,208.266 C353.532,210.762 356.974,212.787 361.223,212.787 M361.223,186.635 C365.472,186.635 368.917,184.611 368.917,182.115 C368.917,179.619 365.472,177.595 361.223,177.595 C356.974,177.595 353.532,179.619 353.532,182.115 C353.532,184.611 356.974,186.635 361.223,186.635 M309.605,291.24 C313.852,291.24 317.297,289.216 317.297,286.72 C317.297,284.224 313.852,282.2 309.605,282.2 C305.356,282.2 301.915,284.224 301.915,286.72 C301.915,289.216 305.356,291.24 309.605,291.24 M309.605,265.088 C313.852,265.088 317.297,263.065 317.297,260.569 C317.297,258.073 313.852,256.048 309.605,256.048 C305.356,256.048 301.915,258.073 301.915,260.569 C301.915,263.065 305.356,265.088 309.605,265.088 M309.605,238.938 C313.852,238.938 317.297,236.914 317.297,234.418 C317.297,231.921 313.852,229.897 309.605,229.897 C305.356,229.897 301.915,231.921 301.915,234.418 C301.915,236.914 305.356,238.938 309.605,238.938 M309.605,212.787 C313.852,212.787 317.297,210.762 317.297,208.266 C317.297,205.77 313.852,203.746 309.605,203.746 C305.356,203.746 301.915,205.77 301.915,208.266 C301.915,210.762 305.356,212.787 309.605,212.787 M309.605,186.635 C313.852,186.635 317.297,184.611 317.297,182.115 C317.297,179.619 313.852,177.595 309.605,177.595 C305.356,177.595 301.915,179.619 301.915,182.115 C301.915,184.611 305.356,186.635 309.605,186.635 M257.987,291.24 C262.233,291.24 265.679,289.216 265.679,286.72 C265.679,284.224 262.233,282.2 257.987,282.2 C253.738,282.2 250.294,284.224 250.294,286.72 C250.294,289.216 253.738,291.24 257.987,291.24 M257.987,265.088 C262.233,265.088 265.679,263.065 265.679,260.569 C265.679,258.073 262.233,256.048 257.987,256.048 C253.738,256.048 250.294,258.073 250.294,260.569 C250.294,263.065 253.738,265.088 257.987,265.088 M257.987,238.938 C262.233,238.938 265.679,236.914 265.679,234.418 C265.679,231.921 262.233,229.897 257.987,229.897 C253.738,229.897 250.294,231.921 250.294,234.418 C250.294,236.914 253.738,238.938 257.987,238.938 M257.987,212.787 C262.233,212.787 265.679,210.762 265.679,208.266 C265.679,205.77 262.233,203.746 257.987,203.746 C253.738,203.746 250.294,205.77 250.294,208.266 C250.294,210.762 253.738,212.787 257.987,212.787 M257.987,186.635 C262.233,186.635 265.679,184.611 265.679,182.115 C265.679,179.619 262.233,177.595 257.987,177.595 C253.738,177.595 250.294,179.619 250.294,182.115 C250.294,184.611 253.738,186.635 257.987,186.635 M206.367,291.24 C210.615,291.24 214.059,289.216 214.059,286.72 C214.059,284.224 210.615,282.2 206.367,282.2 C202.118,282.2 198.676,284.224 198.676,286.72 C198.676,289.216 202.118,291.24 206.367,291.24 M206.367,265.088 C210.615,265.088 214.059,263.065 214.059,260.569 C214.059,258.073 210.615,256.048 206.367,256.048 C202.118,256.048 198.676,258.073 198.676,260.569 C198.676,263.065 202.118,265.088 206.367,265.088 M206.367,238.938 C210.615,238.938 214.059,236.914 214.059,234.418 C214.059,231.921 210.615,229.897 206.367,229.897 C202.118,229.897 198.676,231.921 198.676,234.418 C198.676,236.914 202.118,238.938 206.367,238.938 M206.367,212.787 C210.615,212.787 214.059,210.762 214.059,208.266 C214.059,205.77 210.615,203.746 206.367,203.746 C202.118,203.746 198.676,205.77 198.676,208.266 C198.676,210.762 202.118,212.787 206.367,212.787 M206.367,186.635 C210.615,186.635 214.059,184.611 214.059,182.115 C214.059,179.619 210.615,177.595 206.367,177.595 C202.118,177.595 198.676,179.619 198.676,182.115 C198.676,184.611 202.118,186.635 206.367,186.635 M154.747,291.24 C158.995,291.24 162.438,289.216 162.438,286.72 C162.438,284.224 158.995,282.2 154.747,282.2 C150.5,282.2 147.056,284.224 147.056,286.72 C147.056,289.216 150.5,291.24 154.747,291.24 M154.747,265.088 C158.995,265.088 162.438,263.065 162.438,260.569 C162.438,258.073 158.995,256.048 154.747,256.048 C150.5,256.048 147.056,258.073 147.056,260.569 C147.056,263.065 150.5,265.088 154.747,265.088 M154.747,238.938 C158.995,238.938 162.438,236.914 162.438,234.418 C162.438,231.921 158.995,229.897 154.747,229.897 C150.5,229.897 147.056,231.921 147.056,234.418 C147.056,236.914 150.5,238.938 154.747,238.938 M154.747,212.787 C158.995,212.787 162.438,210.762 162.438,208.266 C162.438,205.77 158.995,203.746 154.747,203.746 C150.5,203.746 147.056,205.77 147.056,208.266 C147.056,210.762 150.5,212.787 154.747,212.787 M154.747,186.635 C158.995,186.635 162.438,184.611 162.438,182.115 C162.438,179.619 158.995,177.595 154.747,177.595 C150.5,177.595 147.056,179.619 147.056,182.115 C147.056,184.611 150.5,186.635 154.747,186.635 M103.128,291.24 C107.376,291.24 110.821,289.216 110.821,286.72 C110.821,284.224 107.376,282.2 103.128,282.2 C98.88,282.2 95.438,284.224 95.438,286.72 C95.438,289.216 98.88,291.24 103.128,291.24 M103.128,265.088 C107.376,265.088 110.821,263.065 110.821,260.569 C110.821,258.073 107.376,256.048 103.128,256.048 C98.88,256.048 95.438,258.073 95.438,260.569 C95.438,263.065 98.88,265.088 103.128,265.088 M103.128,238.938 C107.376,238.938 110.821,236.914 110.821,234.418 C110.821,231.921 107.376,229.897 103.128,229.897 C98.88,229.897 95.438,231.921 95.438,234.418 C95.438,236.914 98.88,238.938 103.128,238.938 M103.128,212.787 C107.376,212.787 110.821,210.762 110.821,208.266 C110.821,205.77 107.376,203.746 103.128,203.746 C98.88,203.746 95.438,205.77 95.438,208.266 C95.438,210.762 98.88,212.787 103.128,212.787 M103.128,186.635 C107.376,186.635 110.821,184.611 110.821,182.115 C110.821,179.619 107.376,177.595 103.128,177.595 C98.88,177.595 95.438,179.619 95.438,182.115 C95.438,184.611 98.88,186.635 103.128,186.635 M51.509,291.24 C55.756,291.24 59.201,289.216 59.201,286.72 C59.201,284.224 55.756,282.2 51.509,282.2 C47.262,282.2 43.817,284.224 43.817,286.72 C43.817,289.216 47.262,291.24 51.509,291.24 M51.509,265.088 C55.756,265.088 59.201,263.065 59.201,260.569 C59.201,258.073 55.756,256.048 51.509,256.048 C47.262,256.048 43.817,258.073 43.817,260.569 C43.817,263.065 47.262,265.088 51.509,265.088 M51.509,238.938 C55.756,238.938 59.201,236.914 59.201,234.418 C59.201,231.921 55.756,229.897 51.509,229.897 C47.262,229.897 43.817,231.921 43.817,234.418 C43.817,236.914 47.262,238.938 51.509,238.938 M51.509,212.787 C55.756,212.787 59.201,210.762 59.201,208.266 C59.201,205.77 55.756,203.746 51.509,203.746 C47.262,203.746 43.817,205.77 43.817,208.266 C43.817,210.762 47.262,212.787 51.509,212.787 M51.509,186.635 C55.756,186.635 59.201,184.611 59.201,182.115 C59.201,179.619 55.756,177.595 51.509,177.595 C47.262,177.595 43.817,179.619 43.817,182.115 C43.817,184.611 47.262,186.635 51.509,186.635 M51.509,103.566 C55.756,103.566 59.201,101.543 59.201,99.046 C59.201,96.548 55.756,94.525 51.509,94.525 C47.262,94.525 43.817,96.548 43.817,99.046 C43.817,101.543 47.262,103.566 51.509,103.566 M51.509,77.414 C55.756,77.414 59.201,75.392 59.201,72.895 C59.201,70.397 55.756,68.374 51.509,68.374 C47.262,68.374 43.817,70.397 43.817,72.895 C43.817,75.392 47.262,77.414 51.509,77.414 M523.773,89.239 C535.879,89.239 545.694,95.007 545.694,102.123 C545.694,104.201 544.835,106.16 543.347,107.898 C545.79,105.819 547.233,103.301 547.233,100.585 C547.233,94.608 540.3,89.598 530.913,88.142 C528.671,88.597 526.277,88.855 523.773,88.855 C521.833,88.855 519.961,88.692 518.171,88.414 C517.792,88.49 517.412,88.567 517.042,88.657 C512.123,89.836 508.11,92.034 505.737,94.809 C509.692,91.445 516.29,89.239 523.773,89.239 M523.773,63.088 C535.879,63.088 545.694,68.855 545.694,75.972 C545.694,78.05 544.835,80.008 543.347,81.747 C545.79,79.668 547.233,77.15 547.233,74.433 C547.233,68.129 539.524,62.893 529.349,61.776 C528.04,61.633 526.694,61.55 525.311,61.55 C522.383,61.55 519.595,61.893 517.042,62.505 C512.123,63.684 508.11,65.883 505.737,68.657 C509.692,65.294 516.29,63.088 523.773,63.088 M472.153,89.239 C484.261,89.239 494.075,95.007 494.075,102.123 C494.075,104.201 493.216,106.16 491.729,107.898 C494.171,105.819 495.613,103.301 495.613,100.585 C495.613,94.608 488.68,89.598 479.294,88.142 C477.053,88.597 474.658,88.855 472.153,88.855 C470.214,88.855 468.342,88.692 466.551,88.414 C465.934,88.538 465.331,88.676 464.74,88.832 C460.132,90.045 456.379,92.165 454.118,94.809 C458.073,91.445 464.671,89.239 472.153,89.239 M472.153,63.088 C484.261,63.088 494.075,68.855 494.075,75.972 C494.075,78.05 493.216,80.008 491.729,81.747 C494.174,79.668 495.613,77.152 495.613,74.433 C495.613,67.99 487.556,62.667 477.046,61.716 C475.95,61.616 474.835,61.55 473.692,61.55 C470.5,61.55 467.475,61.96 464.74,62.68 C460.132,63.894 456.379,66.014 454.118,68.657 C458.073,65.294 464.671,63.088 472.153,63.088 M420.534,89.239 C432.64,89.239 442.456,95.007 442.456,102.123 C442.456,104.201 441.598,106.16 440.109,107.898 C442.553,105.819 443.994,103.301 443.994,100.585 C443.994,94.608 437.062,89.598 427.675,88.142 C425.434,88.597 423.039,88.855 420.534,88.855 C418.594,88.855 416.722,88.692 414.932,88.414 C414.611,88.478 414.292,88.545 413.975,88.62 C408.979,89.789 404.899,92.003 402.498,94.809 C406.454,91.445 413.053,89.239 420.534,89.239 M420.534,63.088 C432.64,63.088 442.456,68.855 442.456,75.972 C442.456,78.05 441.598,80.008 440.109,81.747 C442.553,79.668 443.994,77.15 443.994,74.433 C443.994,68.163 436.373,62.947 426.282,61.793 C424.919,61.636 423.514,61.55 422.073,61.55 C419.209,61.55 416.483,61.88 413.975,62.468 C408.979,63.637 404.899,65.852 402.498,68.657 C406.454,65.294 413.053,63.088 420.534,63.088 M368.917,89.239 C381.022,89.239 390.837,95.008 390.837,102.123 C390.837,104.201 389.98,106.16 388.491,107.896 C390.936,105.819 392.375,103.301 392.375,100.585 C392.375,94.61 385.445,89.598 376.057,88.142 C373.816,88.597 371.419,88.855 368.917,88.855 C366.975,88.855 365.105,88.692 363.313,88.414 C362.757,88.526 362.208,88.646 361.672,88.784 C356.985,89.99 353.17,92.133 350.878,94.809 C354.834,91.445 361.434,89.239 368.917,89.239 M368.917,63.088 C381.022,63.088 390.837,68.855 390.837,75.972 C390.837,78.05 389.98,80.008 388.491,81.747 C390.936,79.668 392.375,77.152 392.375,74.433 C392.375,68.024 384.406,62.724 373.979,61.732 C372.829,61.621 371.658,61.55 370.456,61.55 C367.33,61.55 364.363,61.939 361.672,62.633 C356.988,63.838 353.17,65.98 350.88,68.657 C354.834,65.294 361.434,63.088 368.917,63.088 M317.297,89.239 C329.404,89.239 339.218,95.007 339.218,102.123 C339.218,104.201 338.359,106.16 336.872,107.898 C339.316,105.819 340.756,103.301 340.756,100.585 C340.756,94.608 333.825,89.598 324.438,88.142 C322.196,88.597 319.801,88.855 317.297,88.855 C315.357,88.855 313.486,88.692 311.694,88.414 C311.429,88.467 311.168,88.523 310.908,88.583 C305.834,89.741 301.687,91.972 299.259,94.809 C303.215,91.445 309.815,89.239 317.297,89.239 M317.297,63.088 C329.404,63.088 339.218,68.857 339.218,75.972 C339.218,78.05 338.359,80.008 336.871,81.747 C339.316,79.668 340.756,77.15 340.756,74.433 C340.756,68.2 333.221,63.001 323.215,61.807 C321.799,61.639 320.334,61.55 318.835,61.55 C316.036,61.55 313.369,61.87 310.908,62.431 C305.834,63.59 301.687,65.821 299.259,68.658 C303.215,65.294 309.815,63.088 317.297,63.088 M265.679,89.239 C277.783,89.239 287.598,95.007 287.598,102.123 C287.598,104.201 286.741,106.16 285.251,107.898 C287.697,105.819 289.137,103.301 289.137,100.585 C289.137,94.608 282.204,89.598 272.817,88.142 C270.577,88.597 268.182,88.855 265.679,88.855 C263.737,88.855 261.867,88.692 260.076,88.414 C259.579,88.513 259.085,88.615 258.605,88.734 C253.839,89.934 249.96,92.099 247.642,94.809 C251.597,91.445 258.194,89.239 265.679,89.239 M265.679,63.088 C277.783,63.088 287.598,68.857 287.598,75.972 C287.598,78.05 286.741,80.008 285.251,81.747 C287.697,79.668 289.137,77.15 289.137,74.433 C289.137,68.06 281.254,62.78 270.912,61.745 C269.708,61.625 268.478,61.55 267.217,61.55 C264.158,61.55 261.25,61.919 258.605,62.583 C253.838,63.782 249.958,65.948 247.641,68.658 C251.595,65.294 258.194,63.088 265.679,63.088 M214.059,89.239 C226.165,89.239 235.979,95.008 235.979,102.123 C235.979,104.201 235.121,106.16 233.634,107.898 C236.078,105.819 237.518,103.301 237.518,100.585 C237.518,94.61 230.586,89.598 221.2,88.142 C218.958,88.597 216.562,88.855 214.059,88.855 C212.119,88.855 210.247,88.692 208.457,88.414 C208.25,88.454 208.045,88.501 207.841,88.545 C202.69,89.693 198.477,91.94 196.021,94.809 C199.979,91.445 206.577,89.239 214.059,89.239 M214.059,63.088 C226.165,63.088 235.979,68.855 235.979,75.972 C235.979,78.05 235.121,80.008 233.634,81.747 C236.078,79.668 237.518,77.152 237.518,74.433 C237.518,68.234 230.068,63.062 220.147,61.832 C218.678,61.648 217.159,61.55 215.597,61.55 C212.862,61.55 210.254,61.857 207.841,62.394 C202.69,63.542 198.477,65.79 196.021,68.657 C199.979,65.294 206.577,63.088 214.059,63.088 M162.438,89.239 C174.545,89.239 184.359,95.007 184.359,102.123 C184.359,104.201 183.503,106.16 182.014,107.898 C184.458,105.819 185.898,103.301 185.898,100.585 C185.898,94.608 178.968,89.598 169.58,88.142 C167.338,88.597 164.941,88.855 162.438,88.855 C160.5,88.855 158.627,88.692 156.836,88.414 C156.399,88.503 155.961,88.589 155.538,88.694 C150.696,89.881 146.75,92.067 144.403,94.809 C148.359,91.445 154.957,89.239 162.438,89.239 M162.438,63.088 C174.545,63.088 184.359,68.855 184.359,75.972 C184.359,78.05 183.503,80.008 182.014,81.747 C184.458,79.668 185.898,77.15 185.898,74.433 C185.898,68.094 178.104,62.836 167.845,61.762 C166.588,61.629 165.299,61.55 163.977,61.55 C160.985,61.55 158.136,61.904 155.538,62.542 C150.696,63.73 146.75,65.916 144.404,68.657 C148.359,65.294 154.957,63.088 162.438,63.088 M110.821,89.238 C122.927,89.238 132.742,95.007 132.742,102.123 C132.742,104.201 131.883,106.16 130.394,107.898 C132.841,105.819 134.28,103.301 134.28,100.585 C134.28,94.61 127.35,89.598 117.963,88.142 C115.722,88.595 113.326,88.855 110.821,88.855 C108.879,88.855 107.007,88.692 105.216,88.414 C105.067,88.442 104.921,88.476 104.773,88.509 C99.546,89.645 95.265,91.908 92.784,94.809 C96.739,91.445 103.337,89.238 110.821,89.238 M110.821,63.088 C122.927,63.088 132.742,68.855 132.742,75.972 C132.742,78.05 131.883,80.008 130.394,81.747 C132.841,79.668 134.28,77.15 134.28,74.433 C134.28,68.271 126.915,63.127 117.08,61.857 C115.557,61.66 113.98,61.55 112.359,61.55 C109.688,61.55 107.141,61.843 104.773,62.357 C99.546,63.493 95.265,65.757 92.784,68.657 C96.739,65.294 103.337,63.088 110.821,63.088 M59.201,89.239 C71.308,89.239 81.122,95.007 81.122,102.123 C81.122,104.201 80.264,106.16 78.776,107.898 C81.22,105.819 82.661,103.301 82.661,100.585 C82.661,94.608 75.729,89.598 66.342,88.142 C64.101,88.597 61.704,88.855 59.201,88.855 C57.262,88.855 55.389,88.692 53.598,88.414 C53.22,88.49 52.84,88.567 52.471,88.657 C47.551,89.836 43.538,92.034 41.164,94.809 C45.121,91.445 51.718,89.239 59.201,89.239 M59.201,63.088 C71.308,63.088 81.122,68.855 81.122,75.972 C81.122,78.05 80.264,80.008 78.776,81.747 C81.22,79.668 82.661,77.15 82.661,74.433 C82.661,68.129 74.952,62.893 64.777,61.776 C63.466,61.633 62.121,61.55 60.739,61.55 C57.812,61.55 55.025,61.893 52.471,62.505 C47.551,63.684 43.538,65.883 41.164,68.657 C45.121,65.294 51.718,63.088 59.201,63.088 M523.773,276.53 C521.833,276.53 519.961,276.367 518.171,276.088 C517.792,276.166 517.412,276.242 517.042,276.331 C512.123,277.51 508.11,279.711 505.737,282.484 C509.692,279.121 516.29,276.914 523.773,276.914 C535.879,276.914 545.694,282.682 545.694,289.797 C545.694,291.877 544.835,293.834 543.347,295.572 C545.793,293.494 547.233,290.976 547.233,288.259 C547.233,282.284 540.3,277.272 530.913,275.815 C528.671,276.27 526.277,276.53 523.773,276.53 M523.773,250.378 C521.833,250.378 519.961,250.216 518.171,249.937 C517.792,250.014 517.412,250.09 517.042,250.179 C512.123,251.358 508.11,253.559 505.737,256.334 C509.692,252.969 516.29,250.762 523.773,250.762 C535.879,250.762 545.694,256.531 545.694,263.646 C545.694,265.725 544.835,267.682 543.347,269.42 C545.793,267.342 547.233,264.825 547.233,262.107 C547.233,256.132 540.3,251.121 530.913,249.664 C528.671,250.119 526.277,250.378 523.773,250.378 M523.773,224.226 C521.833,224.226 519.961,224.063 518.171,223.786 C517.792,223.863 517.412,223.939 517.042,224.028 C512.123,225.207 508.11,227.408 505.737,230.18 C509.692,226.818 516.29,224.611 523.773,224.611 C535.879,224.611 545.694,230.379 545.694,237.495 C545.694,239.574 544.835,241.531 543.347,243.269 C545.793,241.191 547.233,238.673 547.233,235.956 C547.233,229.982 540.3,224.969 530.913,223.512 C528.671,223.967 526.277,224.226 523.773,224.226 M523.773,198.075 C521.833,198.075 519.961,197.912 518.171,197.634 C517.792,197.711 517.412,197.788 517.042,197.877 C512.123,199.055 508.11,201.256 505.737,204.029 C509.692,200.667 516.29,198.46 523.773,198.46 C535.879,198.46 545.694,204.228 545.694,211.343 C545.694,213.421 544.835,215.379 543.347,217.118 C545.793,215.04 547.233,212.522 547.233,209.804 C547.233,203.831 540.3,198.819 530.913,197.361 C528.671,197.816 526.277,198.075 523.773,198.075 M517.042,171.725 C512.123,172.907 508.11,175.105 505.737,177.878 C509.692,174.514 516.29,172.308 523.773,172.308 C535.879,172.308 545.694,178.077 545.694,185.192 C545.694,187.27 544.835,189.228 543.347,190.966 C545.793,188.888 547.233,186.371 547.233,183.653 C547.233,177.349 539.524,172.113 529.349,170.997 C528.04,170.854 526.694,170.77 525.311,170.77 C522.383,170.77 519.595,171.114 517.042,171.725 M472.153,276.53 C470.214,276.53 468.342,276.367 466.551,276.088 C465.935,276.213 465.331,276.35 464.74,276.507 C460.132,277.72 456.379,279.84 454.118,282.484 C458.073,279.121 464.671,276.914 472.153,276.914 C484.261,276.914 494.075,282.682 494.075,289.797 C494.075,291.877 493.216,293.834 491.729,295.572 C494.171,293.494 495.613,290.976 495.613,288.259 C495.613,282.284 488.68,277.272 479.294,275.815 C477.052,276.27 474.658,276.53 472.153,276.53 M472.153,250.378 C470.214,250.378 468.342,250.216 466.551,249.937 C465.935,250.062 465.331,250.2 464.74,250.354 C460.132,251.569 456.379,253.689 454.118,256.334 C458.073,252.969 464.671,250.762 472.153,250.762 C484.261,250.762 494.075,256.531 494.075,263.646 C494.075,265.725 493.216,267.682 491.729,269.42 C494.171,267.342 495.613,264.825 495.613,262.107 C495.613,256.132 488.68,251.121 479.294,249.664 C477.052,250.119 474.658,250.378 472.153,250.378 M472.153,224.226 C470.214,224.226 468.342,224.063 466.551,223.786 C465.935,223.911 465.331,224.048 464.74,224.204 C460.132,225.418 456.379,227.538 454.118,230.18 C458.073,226.818 464.671,224.611 472.153,224.611 C484.261,224.611 494.075,230.379 494.075,237.495 C494.075,239.574 493.216,241.531 491.729,243.269 C494.171,241.191 495.613,238.673 495.613,235.956 C495.613,229.982 488.68,224.969 479.294,223.512 C477.052,223.967 474.658,224.226 472.153,224.226 M472.153,198.075 C470.214,198.075 468.342,197.912 466.551,197.634 C465.935,197.759 465.331,197.895 464.74,198.052 C460.132,199.266 456.379,201.386 454.118,204.029 C458.073,200.667 464.671,198.46 472.153,198.46 C484.261,198.46 494.075,204.228 494.075,211.343 C494.075,213.421 493.216,215.379 491.729,217.118 C494.171,215.04 495.613,212.522 495.613,209.804 C495.613,203.831 488.68,198.819 479.294,197.361 C477.052,197.816 474.658,198.075 472.153,198.075 M464.74,171.901 C460.132,173.116 456.379,175.235 454.118,177.878 C458.073,174.514 464.671,172.308 472.153,172.308 C484.261,172.308 494.075,178.077 494.075,185.192 C494.075,187.27 493.216,189.228 491.729,190.966 C494.171,188.888 495.613,186.371 495.613,183.653 C495.613,177.21 487.556,171.887 477.046,170.936 C475.95,170.837 474.835,170.77 473.692,170.77 C470.5,170.77 467.475,171.18 464.74,171.901 M420.534,276.53 C418.594,276.53 416.725,276.367 414.932,276.088 C414.611,276.154 414.292,276.221 413.975,276.294 C408.979,277.463 404.899,279.679 402.498,282.484 C406.454,279.121 413.053,276.914 420.534,276.914 C432.64,276.914 442.456,282.682 442.456,289.797 C442.456,291.877 441.598,293.834 440.109,295.572 C442.554,293.494 443.994,290.976 443.994,288.259 C443.994,282.284 437.062,277.272 427.675,275.815 C425.433,276.27 423.039,276.53 420.534,276.53 M420.534,250.378 C418.594,250.378 416.725,250.216 414.932,249.937 C414.611,250.003 414.292,250.07 413.975,250.144 C408.979,251.312 404.899,253.528 402.498,256.334 C406.454,252.969 413.053,250.762 420.534,250.762 C432.64,250.762 442.456,256.531 442.456,263.646 C442.456,265.725 441.598,267.682 440.109,269.42 C442.554,267.342 443.994,264.825 443.994,262.107 C443.994,256.132 437.062,251.121 427.675,249.664 C425.433,250.119 423.039,250.378 420.534,250.378 M420.534,224.226 C418.594,224.226 416.725,224.063 414.932,223.786 C414.611,223.85 414.292,223.919 413.975,223.993 C408.979,225.161 404.899,227.377 402.498,230.18 C406.454,226.818 413.053,224.611 420.534,224.611 C432.64,224.611 442.456,230.379 442.456,237.495 C442.456,239.574 441.598,241.531 440.109,243.269 C442.554,241.191 443.994,238.673 443.994,235.956 C443.994,229.982 437.062,224.969 427.675,223.512 C425.433,223.967 423.039,224.226 420.534,224.226 M420.534,198.075 C418.594,198.075 416.725,197.912 414.932,197.634 C414.611,197.699 414.292,197.766 413.975,197.841 C408.979,199.009 404.899,201.225 402.498,204.029 C406.454,200.667 413.053,198.46 420.534,198.46 C432.64,198.46 442.456,204.228 442.456,211.343 C442.456,213.421 441.598,215.379 440.109,217.118 C442.554,215.04 443.994,212.522 443.994,209.804 C443.994,203.831 437.062,198.819 427.675,197.361 C425.433,197.816 423.039,198.075 420.534,198.075 M413.975,171.688 C408.979,172.858 404.899,175.074 402.498,177.878 C406.454,174.514 413.053,172.308 420.534,172.308 C432.64,172.308 442.456,178.077 442.456,185.192 C442.456,187.27 441.598,189.228 440.109,190.966 C442.554,188.888 443.994,186.371 443.994,183.653 C443.994,177.385 436.373,172.168 426.282,171.013 C424.919,170.857 423.514,170.77 422.073,170.77 C419.209,170.77 416.483,171.102 413.975,171.688 M368.917,276.53 C366.975,276.53 365.105,276.367 363.313,276.088 C362.757,276.202 362.208,276.32 361.672,276.459 C356.985,277.665 353.17,279.807 350.878,282.484 C354.834,279.121 361.434,276.914 368.917,276.914 C381.022,276.914 390.837,282.682 390.837,289.797 C390.837,291.877 389.98,293.834 388.491,295.572 C390.936,293.494 392.375,290.976 392.375,288.259 C392.375,282.284 385.443,277.272 376.057,275.815 C373.816,276.27 371.419,276.53 368.917,276.53 M368.917,250.378 C366.975,250.378 365.105,250.216 363.313,249.937 C362.757,250.05 362.208,250.169 361.672,250.307 C356.985,251.513 353.17,253.656 350.878,256.334 C354.834,252.969 361.434,250.762 368.917,250.762 C381.022,250.762 390.837,256.531 390.837,263.646 C390.837,265.725 389.98,267.682 388.491,269.42 C390.936,267.342 392.375,264.825 392.375,262.107 C392.375,256.132 385.443,251.121 376.057,249.664 C373.816,250.119 371.419,250.378 368.917,250.378 M368.917,224.226 C366.975,224.226 365.105,224.063 363.313,223.786 C362.757,223.899 362.208,224.017 361.672,224.156 C356.985,225.362 353.17,227.504 350.878,230.18 C354.834,226.818 361.434,224.611 368.917,224.611 C381.022,224.611 390.837,230.379 390.837,237.495 C390.837,239.574 389.98,241.531 388.491,243.269 C390.936,241.191 392.375,238.673 392.375,235.956 C392.375,229.982 385.443,224.969 376.057,223.512 C373.816,223.967 371.419,224.226 368.917,224.226 M368.917,198.075 C366.975,198.075 365.105,197.912 363.313,197.634 C362.757,197.748 362.208,197.866 361.672,198.004 C356.985,199.211 353.17,201.353 350.878,204.029 C354.834,200.667 361.434,198.46 368.917,198.46 C381.022,198.46 390.837,204.228 390.837,211.343 C390.837,213.421 389.98,215.379 388.491,217.118 C390.936,215.04 392.375,212.522 392.375,209.804 C392.375,203.831 385.443,198.819 376.057,197.361 C373.816,197.816 371.419,198.075 368.917,198.075 M361.672,171.853 C356.985,173.059 353.17,175.202 350.878,177.878 C354.834,174.514 361.434,172.308 368.917,172.308 C381.022,172.308 390.837,178.077 390.837,185.192 C390.837,187.27 389.98,189.228 388.491,190.966 C390.936,188.888 392.375,186.371 392.375,183.653 C392.375,177.244 384.406,171.945 373.979,170.952 C372.829,170.841 371.658,170.77 370.456,170.77 C367.33,170.77 364.363,171.16 361.672,171.853 M317.297,276.53 C315.357,276.53 313.486,276.367 311.694,276.088 C311.429,276.141 311.168,276.199 310.908,276.257 C305.834,277.416 301.687,279.648 299.259,282.484 C303.215,279.121 309.815,276.914 317.297,276.914 C329.404,276.914 339.218,282.682 339.218,289.797 C339.218,291.877 338.359,293.834 336.872,295.572 C339.316,293.494 340.756,290.976 340.756,288.259 C340.756,282.284 333.825,277.272 324.438,275.815 C322.196,276.27 319.801,276.53 317.297,276.53 M317.297,250.378 C315.357,250.378 313.486,250.216 311.694,249.937 C311.429,249.99 311.168,250.047 310.908,250.106 C305.834,251.264 301.687,253.497 299.259,256.334 C303.215,252.969 309.815,250.762 317.297,250.762 C329.404,250.762 339.218,256.531 339.218,263.646 C339.218,265.725 338.359,267.682 336.872,269.42 C339.316,267.342 340.756,264.825 340.756,262.107 C340.756,256.132 333.825,251.121 324.438,249.664 C322.196,250.119 319.801,250.378 317.297,250.378 M317.297,224.226 C315.357,224.226 313.486,224.063 311.694,223.786 C311.429,223.838 311.168,223.895 310.908,223.955 C305.834,225.113 301.687,227.345 299.259,230.18 C303.215,226.818 309.815,224.611 317.297,224.611 C329.404,224.611 339.218,230.379 339.218,237.495 C339.218,239.574 338.359,241.531 336.872,243.269 C339.316,241.191 340.756,238.673 340.756,235.956 C340.756,229.982 333.825,224.969 324.438,223.512 C322.196,223.967 319.801,224.226 317.297,224.226 M317.297,198.075 C315.357,198.075 313.486,197.912 311.694,197.634 C311.429,197.687 311.168,197.744 310.908,197.803 C305.834,198.961 301.687,201.194 299.259,204.029 C303.215,200.667 309.815,198.46 317.297,198.46 C329.404,198.46 339.218,204.228 339.218,211.343 C339.218,213.421 338.359,215.379 336.872,217.118 C339.316,215.04 340.756,212.522 340.756,209.804 C340.756,203.831 333.825,198.819 324.438,197.361 C322.196,197.816 319.801,198.075 317.297,198.075 M310.908,171.652 C305.834,172.809 301.687,175.043 299.259,177.878 C303.215,174.514 309.815,172.308 317.297,172.308 C329.404,172.308 339.218,178.077 339.218,185.192 C339.218,187.27 338.359,189.228 336.872,190.966 C339.316,188.888 340.756,186.371 340.756,183.653 C340.756,177.42 333.221,172.22 323.215,171.029 C321.799,170.86 320.334,170.77 318.835,170.77 C316.036,170.77 313.369,171.09 310.908,171.652 M265.679,276.53 C263.737,276.53 261.867,276.367 260.076,276.088 C259.579,276.189 259.085,276.291 258.605,276.41 C253.838,277.608 249.958,279.774 247.641,282.484 C251.595,279.121 258.194,276.914 265.679,276.914 C277.783,276.914 287.598,282.682 287.598,289.797 C287.598,291.877 286.741,293.834 285.251,295.572 C287.697,293.494 289.137,290.976 289.137,288.259 C289.137,282.284 282.204,277.272 272.817,275.815 C270.577,276.27 268.182,276.53 265.679,276.53 M265.679,250.378 C263.737,250.378 261.867,250.216 260.076,249.937 C259.579,250.039 259.085,250.139 258.605,250.258 C253.838,251.457 249.958,253.623 247.641,256.334 C251.595,252.969 258.194,250.762 265.679,250.762 C277.783,250.762 287.598,256.531 287.598,263.646 C287.598,265.725 286.741,267.682 285.251,269.42 C287.697,267.342 289.137,264.825 289.137,262.107 C289.137,256.132 282.204,251.121 272.817,249.664 C270.577,250.119 268.182,250.378 265.679,250.378 M265.679,224.226 C263.737,224.226 261.867,224.063 260.076,223.786 C259.579,223.887 259.085,223.988 258.605,224.107 C253.838,225.305 249.958,227.471 247.641,230.18 C251.595,226.818 258.194,224.611 265.679,224.611 C277.783,224.611 287.598,230.379 287.598,237.495 C287.598,239.574 286.741,241.531 285.251,243.269 C287.697,241.191 289.137,238.673 289.137,235.956 C289.137,229.982 282.204,224.969 272.817,223.512 C270.577,223.967 268.182,224.226 265.679,224.226 M265.679,198.075 C263.737,198.075 261.867,197.912 260.076,197.634 C259.579,197.736 259.085,197.836 258.605,197.956 C253.838,199.154 249.958,201.32 247.641,204.029 C251.595,200.667 258.194,198.46 265.679,198.46 C277.783,198.46 287.598,204.228 287.598,211.343 C287.598,213.421 286.741,215.379 285.251,217.118 C287.697,215.04 289.137,212.522 289.137,209.804 C289.137,203.831 282.204,198.819 272.817,197.361 C270.577,197.816 268.182,198.075 265.679,198.075 M258.605,171.804 C253.838,173.003 249.958,175.169 247.641,177.878 C251.595,174.514 258.194,172.308 265.679,172.308 C277.783,172.308 287.598,178.077 287.598,185.192 C287.598,187.27 286.741,189.228 285.251,190.966 C287.697,188.888 289.137,186.371 289.137,183.653 C289.137,177.281 281.254,172.002 270.912,170.967 C269.708,170.846 268.478,170.77 267.217,170.77 C264.158,170.77 261.25,171.138 258.605,171.804 M214.059,276.53 C212.119,276.53 210.249,276.367 208.457,276.088 C208.25,276.131 208.045,276.174 207.841,276.221 C202.69,277.367 198.477,279.616 196.021,282.484 C199.979,279.121 206.577,276.914 214.059,276.914 C226.165,276.914 235.979,282.682 235.979,289.797 C235.979,291.877 235.121,293.834 233.634,295.572 C236.078,293.494 237.518,290.976 237.518,288.259 C237.518,282.284 230.586,277.272 221.2,275.815 C218.958,276.27 216.562,276.53 214.059,276.53 M214.059,250.378 C212.119,250.378 210.249,250.216 208.457,249.937 C208.25,249.98 208.045,250.023 207.841,250.07 C202.69,251.215 198.477,253.464 196.021,256.334 C199.979,252.969 206.577,250.762 214.059,250.762 C226.165,250.762 235.979,256.531 235.979,263.646 C235.979,265.725 235.121,267.682 233.634,269.42 C236.078,267.342 237.518,264.825 237.518,262.107 C237.518,256.132 230.586,251.121 221.2,249.664 C218.958,250.119 216.562,250.378 214.059,250.378 M214.059,224.226 C212.119,224.226 210.249,224.063 208.457,223.786 C208.25,223.828 208.045,223.872 207.841,223.919 C202.69,225.065 198.477,227.313 196.021,230.18 C199.979,226.818 206.577,224.611 214.059,224.611 C226.165,224.611 235.979,230.379 235.979,237.495 C235.979,239.574 235.121,241.531 233.634,243.269 C236.078,241.191 237.518,238.673 237.518,235.956 C237.518,229.982 230.586,224.969 221.2,223.512 C218.958,223.967 216.562,224.226 214.059,224.226 M214.059,198.075 C212.119,198.075 210.249,197.912 208.457,197.634 C208.25,197.676 208.045,197.72 207.841,197.766 C202.69,198.914 198.477,201.162 196.021,204.029 C199.979,200.667 206.577,198.46 214.059,198.46 C226.165,198.46 235.979,204.228 235.979,211.343 C235.979,213.421 235.121,215.379 233.634,217.118 C236.078,215.04 237.518,212.522 237.518,209.804 C237.518,203.831 230.586,198.819 221.2,197.361 C218.958,197.816 216.562,198.075 214.059,198.075 M207.841,171.615 C202.69,172.763 198.477,175.01 196.021,177.878 C199.979,174.514 206.577,172.308 214.059,172.308 C226.165,172.308 235.979,178.077 235.979,185.192 C235.979,187.27 235.121,189.228 233.634,190.966 C236.078,188.888 237.518,186.371 237.518,183.653 C237.518,177.457 230.068,172.282 220.147,171.052 C218.678,170.869 217.159,170.77 215.597,170.77 C212.862,170.77 210.254,171.077 207.841,171.615 M162.438,276.53 C160.5,276.53 158.628,276.367 156.836,276.088 C156.401,276.177 155.961,276.263 155.538,276.369 C150.696,277.555 146.75,279.743 144.403,282.484 C148.359,279.121 154.957,276.914 162.438,276.914 C174.545,276.914 184.359,282.682 184.359,289.797 C184.359,291.877 183.503,293.834 182.014,295.572 C184.458,293.494 185.898,290.976 185.898,288.259 C185.898,282.284 178.967,277.272 169.58,275.815 C167.338,276.27 164.941,276.53 162.438,276.53 M162.438,250.378 C160.5,250.378 158.628,250.216 156.836,249.937 C156.401,250.026 155.961,250.112 155.538,250.217 C150.696,251.403 146.75,253.591 144.403,256.334 C148.359,252.969 154.957,250.762 162.438,250.762 C174.545,250.762 184.359,256.531 184.359,263.646 C184.359,265.725 183.503,267.682 182.014,269.42 C184.458,267.342 185.898,264.825 185.898,262.107 C185.898,256.132 178.967,251.121 169.58,249.664 C167.338,250.119 164.941,250.378 162.438,250.378 M162.438,224.226 C160.5,224.226 158.628,224.063 156.836,223.786 C156.401,223.875 155.961,223.961 155.538,224.066 C150.696,225.252 146.75,227.44 144.403,230.18 C148.359,226.818 154.957,224.611 162.438,224.611 C174.545,224.611 184.359,230.379 184.359,237.495 C184.359,239.574 183.503,241.531 182.014,243.269 C184.458,241.191 185.898,238.673 185.898,235.956 C185.898,229.982 178.967,224.969 169.58,223.512 C167.338,223.967 164.941,224.226 162.438,224.226 M162.438,198.075 C160.5,198.075 158.628,197.912 156.836,197.634 C156.401,197.723 155.961,197.809 155.538,197.915 C150.696,199.103 146.75,201.288 144.403,204.029 C148.359,200.667 154.957,198.46 162.438,198.46 C174.545,198.46 184.359,204.228 184.359,211.343 C184.359,213.421 183.503,215.379 182.014,217.118 C184.458,215.04 185.898,212.522 185.898,209.804 C185.898,203.831 178.967,198.819 169.58,197.361 C167.338,197.816 164.941,198.075 162.438,198.075 M155.538,171.763 C150.696,172.952 146.75,175.136 144.403,177.878 C148.359,174.514 154.957,172.308 162.438,172.308 C174.545,172.308 184.359,178.077 184.359,185.192 C184.359,187.27 183.503,189.228 182.014,190.966 C184.458,188.888 185.898,186.371 185.898,183.653 C185.898,177.315 178.104,172.057 167.845,170.984 C166.588,170.851 165.299,170.77 163.977,170.77 C160.985,170.77 158.136,171.125 155.538,171.763 M110.821,276.53 C108.879,276.53 107.009,276.367 105.218,276.088 C105.069,276.119 104.921,276.152 104.773,276.183 C99.546,277.32 95.264,279.586 92.782,282.484 C96.739,279.121 103.337,276.914 110.821,276.914 C122.927,276.914 132.742,282.682 132.742,289.797 C132.742,291.877 131.883,293.834 130.394,295.572 C132.841,293.494 134.28,290.976 134.28,288.259 C134.28,282.284 127.348,277.272 117.96,275.815 C115.721,276.27 113.324,276.53 110.821,276.53 M110.821,250.378 C108.879,250.378 107.009,250.216 105.218,249.937 C105.069,249.967 104.921,250.001 104.773,250.032 C99.546,251.168 95.264,253.432 92.782,256.334 C96.739,252.969 103.337,250.762 110.821,250.762 C122.927,250.762 132.742,256.531 132.742,263.646 C132.742,265.725 131.883,267.682 130.394,269.42 C132.841,267.342 134.28,264.825 134.28,262.107 C134.28,256.132 127.348,251.121 117.96,249.664 C115.721,250.119 113.324,250.378 110.821,250.378 M110.821,224.226 C108.879,224.226 107.009,224.063 105.218,223.786 C105.069,223.816 104.921,223.849 104.773,223.881 C99.546,225.016 95.264,227.282 92.782,230.18 C96.739,226.818 103.337,224.611 110.821,224.611 C122.927,224.611 132.742,230.379 132.742,237.495 C132.742,239.574 131.883,241.531 130.394,243.269 C132.841,241.191 134.28,238.673 134.28,235.956 C134.28,229.982 127.348,224.969 117.96,223.512 C115.721,223.967 113.324,224.226 110.821,224.226 M110.821,198.075 C108.879,198.075 107.009,197.912 105.218,197.634 C105.069,197.665 104.921,197.698 104.773,197.73 C99.546,198.865 95.264,201.13 92.782,204.029 C96.739,200.667 103.337,198.46 110.821,198.46 C122.927,198.46 132.742,204.228 132.742,211.343 C132.742,213.421 131.883,215.379 130.394,217.118 C132.841,215.04 134.28,212.522 134.28,209.804 C134.28,203.831 127.348,198.819 117.96,197.361 C115.721,197.816 113.324,198.075 110.821,198.075 M104.773,171.579 C99.546,172.713 95.265,174.979 92.784,177.877 C96.739,174.514 103.338,172.307 110.821,172.307 C122.927,172.307 132.742,178.077 132.742,185.192 C132.742,187.27 131.883,189.228 130.394,190.966 C132.841,188.888 134.28,186.371 134.28,183.653 C134.28,177.492 126.915,172.347 117.08,171.076 C115.557,170.879 113.98,170.768 112.359,170.768 C109.688,170.768 107.141,171.063 104.773,171.579 M59.201,276.53 C57.262,276.53 55.39,276.367 53.598,276.088 C53.22,276.166 52.84,276.242 52.471,276.331 C47.551,277.51 43.538,279.711 41.164,282.484 C45.121,279.121 51.718,276.914 59.201,276.914 C71.308,276.914 81.122,282.682 81.122,289.797 C81.122,291.877 80.264,293.834 78.776,295.572 C81.22,293.494 82.661,290.976 82.661,288.259 C82.661,282.284 75.729,277.272 66.342,275.815 C64.101,276.27 61.704,276.53 59.201,276.53 M59.201,250.378 C57.262,250.378 55.39,250.216 53.598,249.937 C53.22,250.014 52.84,250.09 52.471,250.179 C47.551,251.358 43.538,253.559 41.164,256.334 C45.121,252.969 51.718,250.762 59.201,250.762 C71.308,250.762 81.122,256.531 81.122,263.646 C81.122,265.725 80.264,267.682 78.776,269.42 C81.22,267.342 82.661,264.825 82.661,262.107 C82.661,256.132 75.729,251.121 66.342,249.664 C64.101,250.119 61.704,250.378 59.201,250.378 M59.201,224.226 C57.262,224.226 55.39,224.063 53.598,223.786 C53.22,223.863 52.84,223.939 52.471,224.028 C47.551,225.207 43.538,227.408 41.164,230.18 C45.121,226.818 51.718,224.611 59.201,224.611 C71.308,224.611 81.122,230.379 81.122,237.495 C81.122,239.574 80.264,241.531 78.776,243.269 C81.22,241.191 82.661,238.673 82.661,235.956 C82.661,229.982 75.729,224.969 66.342,223.512 C64.101,223.967 61.704,224.226 59.201,224.226 M59.201,198.075 C57.262,198.075 55.39,197.912 53.598,197.634 C53.22,197.711 52.84,197.788 52.471,197.877 C47.551,199.055 43.538,201.256 41.164,204.029 C45.121,200.667 51.718,198.46 59.201,198.46 C71.308,198.46 81.122,204.228 81.122,211.343 C81.122,213.421 80.264,215.379 78.776,217.118 C81.22,215.04 82.661,212.522 82.661,209.804 C82.661,203.831 75.729,198.819 66.342,197.361 C64.101,197.816 61.704,198.075 59.201,198.075 M60.739,170.77 C62.121,170.77 63.466,170.854 64.777,170.997 C74.952,172.113 82.661,177.349 82.661,183.653 C82.661,186.371 81.22,188.888 78.776,190.966 C80.264,189.228 81.122,187.27 81.122,185.192 C81.122,178.077 71.308,172.308 59.201,172.308 C51.718,172.308 45.121,174.514 41.164,177.878 C43.538,175.105 47.551,172.907 52.471,171.725 C55.025,171.114 57.812,170.77 60.739,170.77" fill="#C6C9CA"/>
    <path d="M529.349,119.161 L529.349,114.569 C535.482,113.621 540.555,111.16 543.347,107.899 C544.835,106.159 545.694,104.201 545.694,102.123 C545.694,95.006 535.879,89.239 523.773,89.239 C516.29,89.239 509.692,91.445 505.737,94.808 C503.293,96.887 501.852,99.404 501.852,102.123 C501.852,107.857 508.231,112.711 517.042,114.381 L517.042,119.161 L477.046,119.161 L477.046,114.672 C483.485,113.809 488.832,111.282 491.729,107.899 C493.216,106.159 494.075,104.201 494.075,102.123 C494.075,95.006 484.261,89.239 472.153,89.239 C464.671,89.239 458.073,91.445 454.118,94.808 C451.673,96.887 450.233,99.404 450.233,102.123 C450.233,107.707 456.289,112.446 464.74,114.233 L464.74,119.161 L426.282,119.161 L426.282,114.543 C432.339,113.577 437.342,111.13 440.109,107.899 C441.598,106.159 442.456,104.201 442.456,102.123 C442.456,95.006 432.64,89.239 420.534,89.239 C413.053,89.239 406.454,91.445 402.498,94.808 C400.052,96.887 398.614,99.404 398.614,102.123 C398.614,107.894 405.075,112.78 413.975,114.419 L413.975,119.161 L373.979,119.161 L373.979,114.646 C380.341,113.76 385.62,111.251 388.491,107.898 C389.98,106.159 390.837,104.201 390.837,102.123 C390.837,95.007 381.022,89.239 368.917,89.239 C361.434,89.239 354.834,91.445 350.878,94.808 C348.435,96.887 346.995,99.404 346.995,102.123 C346.995,107.744 353.131,112.51 361.672,114.271 L361.672,119.161 L323.215,119.161 L323.215,114.517 C329.195,113.532 334.13,111.1 336.872,107.898 C338.359,106.159 339.218,104.201 339.218,102.123 C339.218,95.006 329.404,89.239 317.297,89.239 C309.815,89.239 303.215,91.445 299.259,94.808 C296.814,96.887 295.375,99.404 295.375,102.123 C295.375,107.932 301.918,112.838 310.908,114.446 L310.908,119.161 L270.912,119.161 L270.912,114.619 C277.197,113.713 282.408,111.22 285.251,107.898 C286.741,106.159 287.598,104.201 287.598,102.123 C287.598,95.006 277.783,89.239 265.679,89.239 C258.194,89.239 251.597,91.445 247.642,94.808 C245.196,96.887 243.756,99.404 243.756,102.123 C243.756,107.78 249.974,112.577 258.605,114.308 L258.605,119.161 L220.147,119.161 L220.147,114.49 C226.051,113.488 230.917,111.069 233.634,107.898 C235.121,106.159 235.979,104.201 235.979,102.123 C235.979,95.007 226.165,89.239 214.059,89.239 C206.577,89.239 199.979,91.445 196.021,94.808 C193.577,96.887 192.138,99.404 192.138,102.123 C192.138,107.966 198.765,112.895 207.841,114.472 L207.841,119.161 L167.845,119.161 L167.845,114.596 C174.053,113.668 179.195,111.19 182.014,107.898 C183.503,106.159 184.359,104.201 184.359,102.123 C184.359,95.006 174.545,89.239 162.438,89.239 C154.957,89.239 148.359,91.445 144.403,94.808 C141.958,96.886 140.518,99.404 140.518,102.123 C140.518,107.819 146.817,112.643 155.538,114.344 L155.538,119.161 L117.08,119.161 L117.08,114.466 C122.909,113.446 127.706,111.041 130.394,107.899 C131.883,106.159 132.742,104.201 132.742,102.123 C132.742,95.006 122.927,89.237 110.821,89.237 C103.337,89.237 96.739,91.445 92.784,94.808 C90.338,96.887 88.898,99.404 88.898,102.123 C88.898,108.004 95.611,112.954 104.773,114.498 L104.773,119.161 L64.777,119.161 L64.777,114.569 C70.909,113.621 75.983,111.16 78.776,107.899 C80.264,106.159 81.122,104.201 81.122,102.123 C81.122,95.006 71.308,89.239 59.201,89.239 C51.718,89.239 45.121,91.445 41.164,94.808 C38.72,96.887 37.28,99.404 37.28,102.123 C37.28,107.857 43.658,112.711 52.471,114.381 L52.471,119.161 L23.243,119.161 L23.243,23.785 L52.471,23.785 L52.471,62.504 C55.025,61.893 57.812,61.549 60.739,61.549 C62.121,61.549 63.466,61.634 64.777,61.776 L64.777,23.785 L104.773,23.785 L104.773,62.357 C107.141,61.843 109.688,61.549 112.359,61.549 C113.98,61.549 115.557,61.66 117.08,61.857 L117.08,23.785 L155.538,23.785 L155.538,62.541 C158.136,61.903 160.985,61.549 163.977,61.549 C165.299,61.549 166.588,61.629 167.845,61.762 L167.845,23.785 L207.841,23.785 L207.841,62.396 C210.254,61.857 212.862,61.549 215.597,61.549 C217.159,61.549 218.678,61.647 220.147,61.831 L220.147,23.785 L258.605,23.785 L258.605,62.583 C261.25,61.92 264.158,61.549 267.217,61.549 C268.478,61.549 269.708,61.627 270.912,61.746 L270.912,23.785 L310.908,23.785 L310.908,62.431 C313.369,61.869 316.036,61.549 318.835,61.549 C320.334,61.549 321.799,61.638 323.215,61.807 L323.215,23.785 L361.672,23.785 L361.672,62.632 C364.363,61.94 367.33,61.549 370.456,61.549 C371.658,61.549 372.829,61.622 373.979,61.731 L373.979,23.785 L413.975,23.785 L413.975,62.468 C416.483,61.882 419.209,61.549 422.073,61.549 C423.514,61.549 424.919,61.635 426.282,61.793 L426.282,23.785 L464.74,23.785 L464.74,62.68 C467.475,61.958 470.5,61.549 473.692,61.549 C474.835,61.549 475.95,61.615 477.046,61.716 L477.046,23.785 L517.042,23.785 L517.042,62.504 C519.595,61.893 522.383,61.549 525.311,61.549 C526.694,61.549 528.04,61.634 529.349,61.776 L529.349,23.785 L558.578,23.785 L558.578,119.161 L529.349,119.161 z M516.082,103.565 C511.833,103.565 508.389,101.543 508.389,99.045 C508.389,96.549 511.833,94.525 516.082,94.525 C520.331,94.525 523.773,96.549 523.773,99.045 C523.773,101.543 520.331,103.565 516.082,103.565 M464.462,103.565 C460.213,103.565 456.771,101.543 456.771,99.045 C456.771,96.549 460.213,94.525 464.462,94.525 C468.71,94.525 472.153,96.549 472.153,99.045 C472.153,101.543 468.71,103.565 464.462,103.565 M412.842,103.565 C408.594,103.565 405.152,101.543 405.152,99.045 C405.152,96.549 408.594,94.525 412.842,94.525 C417.091,94.525 420.534,96.549 420.534,99.045 C420.534,101.543 417.091,103.565 412.842,103.565 M361.223,103.565 C356.974,103.565 353.532,101.543 353.532,99.045 C353.532,96.549 356.974,94.525 361.223,94.525 C365.472,94.525 368.917,96.549 368.917,99.045 C368.917,101.543 365.472,103.565 361.223,103.565 M309.605,103.565 C305.356,103.565 301.915,101.543 301.915,99.045 C301.915,96.549 305.356,94.525 309.605,94.525 C313.852,94.525 317.297,96.549 317.297,99.045 C317.297,101.543 313.852,103.565 309.605,103.565 M257.987,103.565 C253.738,103.565 250.294,101.543 250.294,99.045 C250.294,96.549 253.738,94.525 257.987,94.525 C262.233,94.525 265.679,96.549 265.679,99.045 C265.679,101.543 262.233,103.565 257.987,103.565 M206.367,103.565 C202.118,103.565 198.676,101.543 198.676,99.045 C198.676,96.549 202.118,94.525 206.367,94.525 C210.615,94.525 214.059,96.549 214.059,99.045 C214.059,101.543 210.615,103.565 206.367,103.565 M154.747,103.565 C150.5,103.565 147.056,101.543 147.056,99.045 C147.056,96.549 150.5,94.525 154.747,94.525 C158.995,94.525 162.438,96.549 162.438,99.045 C162.438,101.543 158.995,103.565 154.747,103.565 M103.128,103.565 C98.88,103.565 95.438,101.541 95.438,99.045 C95.438,96.549 98.88,94.525 103.128,94.525 C107.376,94.525 110.821,96.549 110.821,99.045 C110.821,101.541 107.376,103.565 103.128,103.565 M51.509,103.565 C47.262,103.565 43.817,101.543 43.817,99.045 C43.817,96.549 47.262,94.525 51.509,94.525 C55.756,94.525 59.201,96.549 59.201,99.045 C59.201,101.543 55.756,103.565 51.509,103.565 M51.509,291.24 C47.262,291.24 43.817,289.216 43.817,286.72 C43.817,284.224 47.262,282.2 51.509,282.2 C55.756,282.2 59.201,284.224 59.201,286.72 C59.201,289.216 55.756,291.24 51.509,291.24 M103.128,291.24 C98.88,291.24 95.438,289.216 95.438,286.72 C95.438,284.224 98.88,282.2 103.128,282.2 C107.376,282.2 110.821,284.224 110.821,286.72 C110.821,289.216 107.376,291.24 103.128,291.24 M154.747,291.24 C150.5,291.24 147.056,289.216 147.056,286.72 C147.056,284.224 150.5,282.2 154.747,282.2 C158.995,282.2 162.438,284.224 162.438,286.72 C162.438,289.216 158.995,291.24 154.747,291.24 M206.367,291.24 C202.118,291.24 198.676,289.216 198.676,286.72 C198.676,284.224 202.118,282.2 206.367,282.2 C210.615,282.2 214.059,284.224 214.059,286.72 C214.059,289.216 210.615,291.24 206.367,291.24 M257.987,291.24 C253.738,291.24 250.294,289.216 250.294,286.72 C250.294,284.224 253.738,282.2 257.987,282.2 C262.233,282.2 265.679,284.224 265.679,286.72 C265.679,289.216 262.233,291.24 257.987,291.24 M309.605,291.24 C305.356,291.24 301.915,289.216 301.915,286.72 C301.915,284.224 305.356,282.2 309.605,282.2 C313.852,282.2 317.297,284.224 317.297,286.72 C317.297,289.216 313.852,291.24 309.605,291.24 M361.223,291.24 C356.974,291.24 353.532,289.216 353.532,286.72 C353.532,284.224 356.974,282.2 361.223,282.2 C365.472,282.2 368.917,284.224 368.917,286.72 C368.917,289.216 365.472,291.24 361.223,291.24 M412.842,291.24 C408.594,291.24 405.152,289.216 405.152,286.72 C405.152,284.224 408.594,282.2 412.842,282.2 C417.091,282.2 420.534,284.224 420.534,286.72 C420.534,289.216 417.091,291.24 412.842,291.24 M464.462,291.24 C460.213,291.24 456.771,289.216 456.771,286.72 C456.771,284.224 460.213,282.2 464.462,282.2 C468.71,282.2 472.153,284.224 472.153,286.72 C472.153,289.216 468.71,291.24 464.462,291.24 M516.082,291.24 C511.833,291.24 508.389,289.216 508.389,286.72 C508.389,284.224 511.833,282.2 516.082,282.2 C520.331,282.2 523.773,284.224 523.773,286.72 C523.773,289.216 520.331,291.24 516.082,291.24 M558.578,303.759 L529.349,303.759 L529.349,302.244 C535.482,301.297 540.555,298.835 543.347,295.572 C544.835,293.834 545.694,291.877 545.694,289.797 C545.694,282.682 535.879,276.914 523.773,276.914 C516.29,276.914 509.692,279.121 505.737,282.484 C503.292,284.563 501.852,287.079 501.852,289.797 C501.852,295.532 508.231,300.384 517.042,302.055 L517.042,303.759 L477.046,303.759 L477.046,302.346 C483.485,301.484 488.832,298.956 491.729,295.572 C493.216,293.834 494.075,291.877 494.075,289.797 C494.075,282.682 484.261,276.914 472.153,276.914 C464.671,276.914 458.073,279.121 454.118,282.484 C451.673,284.563 450.233,287.079 450.233,289.797 C450.233,295.38 456.289,300.121 464.74,301.909 L464.74,303.759 L426.282,303.759 L426.282,302.217 C432.339,301.252 437.342,298.804 440.109,295.572 C441.598,293.834 442.456,291.877 442.456,289.797 C442.456,282.682 432.64,276.914 420.534,276.914 C413.053,276.914 406.454,279.121 402.498,282.484 C400.052,284.563 398.614,287.079 398.614,289.797 C398.614,295.568 405.075,300.455 413.975,302.093 L413.975,303.759 L373.979,303.759 L373.979,302.322 C380.341,301.435 385.62,298.926 388.491,295.572 C389.98,293.834 390.837,291.877 390.837,289.797 C390.837,282.682 381.022,276.914 368.917,276.914 C361.434,276.914 354.834,279.121 350.878,282.484 C348.435,284.563 346.995,287.079 346.995,289.797 C346.995,295.418 353.131,300.186 361.672,301.946 L361.672,303.759 L323.215,303.759 L323.215,302.193 C329.195,301.207 334.13,298.775 336.872,295.572 C338.359,293.834 339.218,291.877 339.218,289.797 C339.218,282.682 329.404,276.914 317.297,276.914 C309.815,276.914 303.215,279.121 299.259,282.484 C296.814,284.563 295.375,287.079 295.375,289.797 C295.375,295.605 301.918,300.512 310.908,302.121 L310.908,303.759 L270.912,303.759 L270.912,302.295 C277.197,301.388 282.408,298.896 285.251,295.572 C286.741,293.834 287.598,291.877 287.598,289.797 C287.598,282.682 277.783,276.914 265.679,276.914 C258.194,276.914 251.595,279.121 247.641,282.484 C245.196,284.563 243.756,287.079 243.756,289.797 C243.756,295.456 249.974,300.251 258.605,301.982 L258.605,303.759 L220.147,303.759 L220.147,302.167 C226.051,301.165 230.917,298.745 233.634,295.572 C235.121,293.834 235.979,291.877 235.979,289.797 C235.979,282.682 226.165,276.914 214.059,276.914 C206.577,276.914 199.979,279.121 196.021,282.484 C193.577,284.563 192.138,287.079 192.138,289.797 C192.138,295.64 198.765,300.57 207.841,302.148 L207.841,303.759 L167.845,303.759 L167.845,302.268 C174.053,301.342 179.195,298.865 182.014,295.572 C183.503,293.834 184.359,291.877 184.359,289.797 C184.359,282.682 174.545,276.914 162.438,276.914 C154.957,276.914 148.359,279.121 144.403,282.484 C141.958,284.563 140.518,287.079 140.518,289.797 C140.518,295.494 146.817,300.317 155.538,302.02 L155.538,303.759 L117.08,303.759 L117.08,302.139 C122.909,301.122 127.706,298.714 130.394,295.572 C131.883,293.834 132.742,291.877 132.742,289.797 C132.742,282.682 122.927,276.914 110.821,276.914 C103.337,276.914 96.739,279.121 92.782,282.484 C90.338,284.563 88.898,287.079 88.898,289.797 C88.898,295.677 95.611,300.628 104.773,302.172 L104.773,303.759 L64.777,303.759 L64.777,302.244 C70.909,301.297 75.983,298.835 78.776,295.572 C80.264,293.834 81.122,291.877 81.122,289.797 C81.122,282.682 71.308,276.914 59.201,276.914 C51.718,276.914 45.121,279.121 41.164,282.484 C38.72,284.563 37.28,287.079 37.28,289.797 C37.28,295.532 43.658,300.384 52.471,302.055 L52.471,303.759 L23.243,303.759 L23.243,140.697 L52.471,140.697 L52.471,171.725 C55.025,171.114 57.812,170.77 60.739,170.77 C62.121,170.77 63.466,170.854 64.777,170.998 L64.777,140.697 L104.773,140.697 L104.773,171.579 C107.141,171.064 109.688,170.768 112.359,170.768 C113.98,170.768 115.557,170.88 117.08,171.077 L117.08,140.697 L155.538,140.697 L155.538,171.763 C158.136,171.125 160.985,170.77 163.977,170.77 C165.299,170.77 166.588,170.849 167.845,170.981 L167.845,140.697 L207.841,140.697 L207.841,171.615 C210.254,171.077 212.862,170.77 215.597,170.77 C217.159,170.77 218.678,170.869 220.147,171.052 L220.147,140.697 L258.605,140.697 L258.605,171.803 C261.25,171.141 264.158,170.77 267.217,170.77 C268.478,170.77 269.708,170.846 270.912,170.967 L270.912,140.697 L310.908,140.697 L310.908,171.652 C313.369,171.09 316.036,170.77 318.835,170.77 C320.334,170.77 321.799,170.86 323.215,171.029 L323.215,140.697 L361.672,140.697 L361.672,171.853 C364.363,171.16 367.33,170.77 370.456,170.77 C371.658,170.77 372.829,170.841 373.979,170.952 L373.979,140.697 L413.975,140.697 L413.975,171.688 C416.483,171.102 419.209,170.77 422.073,170.77 C423.514,170.77 424.919,170.857 426.282,171.013 L426.282,140.697 L464.74,140.697 L464.74,171.901 C467.475,171.18 470.5,170.77 473.692,170.77 C474.835,170.77 475.95,170.836 477.046,170.936 L477.046,140.697 L517.042,140.697 L517.042,171.725 C519.595,171.114 522.383,170.77 525.311,170.77 C526.694,170.77 528.04,170.854 529.349,170.998 L529.349,140.697 L558.578,140.697 L558.578,303.759 z M1.706,325.295 L580.114,325.295 L580.114,2.249 L1.706,2.249 z M516.082,77.414 C511.833,77.414 508.389,75.391 508.389,72.894 C508.389,70.397 511.833,68.373 516.082,68.373 C520.331,68.373 523.773,70.397 523.773,72.894 C523.773,75.391 520.331,77.414 516.082,77.414 M523.773,63.087 C516.29,63.087 509.692,65.294 505.737,68.656 C503.293,70.736 501.852,73.253 501.852,75.971 C501.852,81.706 508.231,86.559 517.042,88.23 L517.042,88.656 C517.412,88.566 517.792,88.492 518.171,88.414 C519.961,88.691 521.833,88.854 523.773,88.854 C526.277,88.854 528.671,88.596 530.913,88.14 C536.341,87.041 540.795,84.728 543.347,81.748 C544.835,80.007 545.694,78.049 545.694,75.971 C545.694,68.855 535.879,63.087 523.773,63.087 M464.462,77.414 C460.213,77.414 456.771,75.391 456.771,72.894 C456.771,70.397 460.213,68.373 464.462,68.373 C468.71,68.373 472.153,70.397 472.153,72.894 C472.153,75.391 468.71,77.414 464.462,77.414 M472.153,63.087 C464.671,63.087 458.073,65.294 454.118,68.656 C451.673,70.736 450.233,73.253 450.233,75.971 C450.233,81.556 456.289,86.294 464.74,88.083 L464.74,88.832 C465.331,88.676 465.934,88.539 466.551,88.414 C468.342,88.691 470.214,88.854 472.153,88.854 C474.658,88.854 477.053,88.596 479.294,88.14 C484.723,87.041 489.177,84.728 491.729,81.748 C493.216,80.007 494.075,78.049 494.075,75.971 C494.075,68.855 484.261,63.087 472.153,63.087 M412.842,77.414 C408.594,77.414 405.152,75.391 405.152,72.894 C405.152,70.397 408.594,68.373 412.842,68.373 C417.091,68.373 420.534,70.397 420.534,72.894 C420.534,75.391 417.091,77.414 412.842,77.414 M420.534,63.087 C413.053,63.087 406.454,65.294 402.498,68.656 C400.054,70.736 398.614,73.253 398.614,75.971 C398.614,81.742 405.075,86.628 413.975,88.267 L413.975,88.619 C414.292,88.545 414.611,88.479 414.932,88.414 C416.722,88.691 418.594,88.854 420.534,88.854 C423.039,88.854 425.434,88.596 427.675,88.14 C433.104,87.041 437.557,84.728 440.109,81.748 C441.598,80.007 442.456,78.049 442.456,75.971 C442.456,68.855 432.64,63.087 420.534,63.087 M361.223,77.414 C356.974,77.414 353.532,75.391 353.532,72.894 C353.532,70.397 356.974,68.373 361.223,68.373 C365.472,68.373 368.917,70.397 368.917,72.894 C368.917,75.391 365.472,77.414 361.223,77.414 M368.917,63.087 C361.434,63.087 354.834,65.294 350.88,68.656 C348.435,70.735 346.995,73.253 346.995,75.971 C346.995,81.594 353.131,86.359 361.672,88.119 L361.672,88.784 C362.208,88.646 362.757,88.525 363.313,88.414 C365.105,88.691 366.975,88.854 368.917,88.854 C371.419,88.854 373.816,88.596 376.057,88.14 C381.486,87.041 385.94,84.728 388.491,81.747 C389.98,80.007 390.837,78.049 390.837,75.971 C390.837,68.855 381.022,63.087 368.917,63.087 M309.605,77.414 C305.356,77.414 301.915,75.391 301.915,72.894 C301.915,70.397 305.356,68.373 309.605,68.373 C313.852,68.373 317.297,70.397 317.297,72.894 C317.297,75.391 313.852,77.414 309.605,77.414 M317.297,63.087 C309.815,63.087 303.215,65.294 299.259,68.658 C296.814,70.736 295.375,73.253 295.375,75.971 C295.375,81.78 301.918,86.687 310.908,88.294 L310.908,88.583 C311.168,88.523 311.429,88.467 311.694,88.414 C313.486,88.691 315.357,88.854 317.297,88.854 C319.801,88.854 322.196,88.596 324.438,88.14 C329.867,87.041 334.32,84.728 336.871,81.747 C338.359,80.007 339.218,78.049 339.218,75.971 C339.218,68.857 329.404,63.087 317.297,63.087 M257.987,77.414 C253.738,77.414 250.294,75.391 250.294,72.894 C250.294,70.397 253.738,68.373 257.987,68.373 C262.233,68.373 265.679,70.397 265.679,72.894 C265.679,75.391 262.233,77.414 257.987,77.414 M265.679,63.087 C258.194,63.087 251.595,65.294 247.641,68.658 C245.196,70.736 243.756,73.253 243.756,75.971 C243.756,81.63 249.974,86.426 258.605,88.156 L258.605,88.734 C259.085,88.615 259.579,88.515 260.076,88.414 C261.867,88.691 263.737,88.854 265.679,88.854 C268.182,88.854 270.577,88.596 272.817,88.14 C278.247,87.041 282.7,84.728 285.251,81.747 C286.741,80.007 287.598,78.049 287.598,75.971 C287.598,68.857 277.783,63.087 265.679,63.087 M206.367,77.414 C202.118,77.414 198.676,75.391 198.676,72.894 C198.676,70.397 202.118,68.373 206.367,68.373 C210.615,68.373 214.059,70.397 214.059,72.894 C214.059,75.391 210.615,77.414 206.367,77.414 M214.059,63.087 C206.577,63.087 199.979,65.294 196.021,68.656 C193.577,70.736 192.138,73.253 192.138,75.971 C192.138,81.817 198.765,86.744 207.841,88.321 L207.841,88.547 C208.045,88.501 208.25,88.456 208.457,88.414 C210.247,88.691 212.119,88.854 214.059,88.854 C216.562,88.854 218.958,88.596 221.2,88.14 C226.628,87.041 231.082,84.728 233.634,81.747 C235.121,80.007 235.979,78.049 235.979,75.971 C235.979,68.855 226.165,63.087 214.059,63.087 M154.747,77.414 C150.5,77.414 147.056,75.391 147.056,72.894 C147.056,70.397 150.5,68.373 154.747,68.373 C158.995,68.373 162.438,70.397 162.438,72.894 C162.438,75.391 158.995,77.414 154.747,77.414 M162.438,63.087 C154.957,63.087 148.359,65.294 144.404,68.656 C141.958,70.736 140.518,73.253 140.518,75.971 C140.518,81.667 146.817,86.492 155.538,88.193 L155.538,88.692 C155.961,88.588 156.399,88.502 156.836,88.414 C158.627,88.691 160.5,88.854 162.438,88.854 C164.941,88.854 167.338,88.596 169.58,88.14 C175.009,87.041 179.461,84.728 182.014,81.747 C183.503,80.007 184.359,78.049 184.359,75.971 C184.359,68.855 174.545,63.087 162.438,63.087 M103.128,77.414 C98.88,77.414 95.438,75.391 95.438,72.894 C95.438,70.397 98.88,68.373 103.128,68.373 C107.376,68.373 110.821,70.397 110.821,72.894 C110.821,75.391 107.376,77.414 103.128,77.414 M110.821,63.087 C103.337,63.087 96.739,65.294 92.784,68.656 C90.338,70.736 88.898,73.253 88.898,75.971 C88.898,81.852 95.611,86.802 104.773,88.347 L104.773,88.509 C104.921,88.476 105.067,88.444 105.216,88.414 C107.007,88.691 108.879,88.854 110.821,88.854 C113.326,88.854 115.722,88.594 117.963,88.14 C123.392,87.041 127.844,84.728 130.394,81.748 C131.883,80.007 132.742,78.049 132.742,75.971 C132.742,68.855 122.927,63.087 110.821,63.087 M516.082,265.088 C511.833,265.088 508.389,263.065 508.389,260.569 C508.389,258.073 511.833,256.048 516.082,256.048 C520.331,256.048 523.773,258.073 523.773,260.569 C523.773,263.065 520.331,265.088 516.082,265.088 M523.773,250.762 C516.29,250.762 509.692,252.969 505.737,256.334 C503.292,258.412 501.852,260.928 501.852,263.646 C501.852,269.38 508.231,274.233 517.042,275.904 L517.042,276.331 C517.412,276.242 517.792,276.167 518.171,276.088 C519.961,276.367 521.833,276.53 523.773,276.53 C526.277,276.53 528.671,276.27 530.913,275.815 C536.341,274.715 540.796,272.403 543.347,269.42 C544.835,267.682 545.694,265.725 545.694,263.646 C545.694,256.531 535.879,250.762 523.773,250.762 M516.082,238.938 C511.833,238.938 508.389,236.914 508.389,234.418 C508.389,231.921 511.833,229.897 516.082,229.897 C520.331,229.897 523.773,231.921 523.773,234.418 C523.773,236.914 520.331,238.938 516.082,238.938 M523.773,224.611 C516.29,224.611 509.692,226.818 505.737,230.18 C503.292,232.26 501.852,234.777 501.852,237.495 C501.852,243.228 508.231,248.082 517.042,249.753 L517.042,250.179 C517.412,250.09 517.792,250.015 518.171,249.937 C519.961,250.216 521.833,250.378 523.773,250.378 C526.277,250.378 528.671,250.119 530.913,249.664 C536.341,248.564 540.796,246.252 543.347,243.269 C544.835,241.531 545.694,239.574 545.694,237.495 C545.694,230.379 535.879,224.611 523.773,224.611 M516.082,212.787 C511.833,212.787 508.389,210.762 508.389,208.266 C508.389,205.77 511.833,203.746 516.082,203.746 C520.331,203.746 523.773,205.77 523.773,208.266 C523.773,210.762 520.331,212.787 516.082,212.787 M523.773,198.46 C516.29,198.46 509.692,200.667 505.737,204.029 C503.292,206.109 501.852,208.626 501.852,211.343 C501.852,217.077 508.231,221.93 517.042,223.601 L517.042,224.028 C517.412,223.939 517.792,223.865 518.171,223.786 C519.961,224.063 521.833,224.226 523.773,224.226 C526.277,224.226 528.671,223.967 530.913,223.512 C536.341,222.413 540.796,220.099 543.347,217.118 C544.835,215.379 545.694,213.421 545.694,211.343 C545.694,204.228 535.879,198.46 523.773,198.46 M516.082,186.635 C511.833,186.635 508.389,184.611 508.389,182.115 C508.389,179.619 511.833,177.595 516.082,177.595 C520.331,177.595 523.773,179.619 523.773,182.115 C523.773,184.611 520.331,186.635 516.082,186.635 M505.737,177.878 C503.292,179.958 501.852,182.474 501.852,185.192 C501.852,190.925 508.231,195.78 517.042,197.45 L517.042,197.877 C517.412,197.788 517.792,197.713 518.171,197.634 C519.961,197.912 521.833,198.075 523.773,198.075 C526.277,198.075 528.671,197.816 530.913,197.361 C536.341,196.261 540.796,193.948 543.347,190.966 C544.835,189.228 545.694,187.27 545.694,185.192 C545.694,178.077 535.879,172.308 523.773,172.308 C516.29,172.308 509.692,174.514 505.737,177.878 M464.462,265.088 C460.213,265.088 456.771,263.065 456.771,260.569 C456.771,258.073 460.213,256.048 464.462,256.048 C468.71,256.048 472.153,258.073 472.153,260.569 C472.153,263.065 468.71,265.088 464.462,265.088 M472.153,250.762 C464.671,250.762 458.073,252.969 454.118,256.334 C451.673,258.412 450.233,260.928 450.233,263.646 C450.233,269.227 456.289,273.969 464.74,275.757 L464.74,276.507 C465.331,276.35 465.935,276.213 466.551,276.088 C468.342,276.367 470.214,276.53 472.153,276.53 C474.658,276.53 477.052,276.27 479.294,275.815 C484.723,274.715 489.175,272.403 491.729,269.42 C493.216,267.682 494.075,265.725 494.075,263.646 C494.075,256.531 484.261,250.762 472.153,250.762 M464.462,238.938 C460.213,238.938 456.771,236.914 456.771,234.418 C456.771,231.921 460.213,229.897 464.462,229.897 C468.71,229.897 472.153,231.921 472.153,234.418 C472.153,236.914 468.71,238.938 464.462,238.938 M472.153,224.611 C464.671,224.611 458.073,226.818 454.118,230.18 C451.673,232.26 450.233,234.777 450.233,237.495 C450.233,243.076 456.289,247.818 464.74,249.606 L464.74,250.354 C465.331,250.2 465.935,250.062 466.551,249.937 C468.342,250.216 470.214,250.378 472.153,250.378 C474.658,250.378 477.052,250.119 479.294,249.664 C484.723,248.564 489.175,246.252 491.729,243.269 C493.216,241.531 494.075,239.574 494.075,237.495 C494.075,230.379 484.261,224.611 472.153,224.611 M464.462,212.787 C460.213,212.787 456.771,210.762 456.771,208.266 C456.771,205.77 460.213,203.746 464.462,203.746 C468.71,203.746 472.153,205.77 472.153,208.266 C472.153,210.762 468.71,212.787 464.462,212.787 M472.153,198.46 C464.671,198.46 458.073,200.667 454.118,204.029 C451.673,206.109 450.233,208.626 450.233,211.343 C450.233,216.924 456.289,221.667 464.74,223.455 L464.74,224.204 C465.331,224.048 465.935,223.911 466.551,223.786 C468.342,224.063 470.214,224.226 472.153,224.226 C474.658,224.226 477.052,223.967 479.294,223.512 C484.723,222.413 489.175,220.099 491.729,217.118 C493.216,215.379 494.075,213.421 494.075,211.343 C494.075,204.228 484.261,198.46 472.153,198.46 M464.462,186.635 C460.213,186.635 456.771,184.611 456.771,182.115 C456.771,179.619 460.213,177.595 464.462,177.595 C468.71,177.595 472.153,179.619 472.153,182.115 C472.153,184.611 468.71,186.635 464.462,186.635 M472.153,172.308 C464.671,172.308 458.073,174.514 454.118,177.878 C451.673,179.958 450.233,182.474 450.233,185.192 C450.233,190.774 456.289,195.515 464.74,197.303 L464.74,198.052 C465.331,197.895 465.935,197.759 466.551,197.634 C468.342,197.912 470.214,198.075 472.153,198.075 C474.658,198.075 477.052,197.816 479.294,197.361 C484.723,196.261 489.175,193.948 491.729,190.966 C493.216,189.228 494.075,187.27 494.075,185.192 C494.075,178.077 484.261,172.308 472.153,172.308 M412.842,265.088 C408.594,265.088 405.152,263.065 405.152,260.569 C405.152,258.073 408.594,256.048 412.842,256.048 C417.091,256.048 420.534,258.073 420.534,260.569 C420.534,263.065 417.091,265.088 412.842,265.088 M420.534,250.762 C413.053,250.762 406.454,252.969 402.498,256.334 C400.052,258.412 398.614,260.928 398.614,263.646 C398.614,269.418 405.075,274.303 413.975,275.942 L413.975,276.294 C414.292,276.221 414.611,276.154 414.932,276.088 C416.725,276.367 418.594,276.53 420.534,276.53 C423.039,276.53 425.433,276.27 427.675,275.815 C433.104,274.715 437.557,272.403 440.109,269.42 C441.598,267.682 442.456,265.725 442.456,263.646 C442.456,256.531 432.64,250.762 420.534,250.762 M412.842,238.938 C408.594,238.938 405.152,236.914 405.152,234.418 C405.152,231.921 408.594,229.897 412.842,229.897 C417.091,229.897 420.534,231.921 420.534,234.418 C420.534,236.914 417.091,238.938 412.842,238.938 M420.534,224.611 C413.053,224.611 406.454,226.818 402.498,230.18 C400.052,232.26 398.614,234.777 398.614,237.495 C398.614,243.266 405.075,248.151 413.975,249.791 L413.975,250.144 C414.292,250.07 414.611,250.003 414.932,249.937 C416.725,250.216 418.594,250.378 420.534,250.378 C423.039,250.378 425.433,250.119 427.675,249.664 C433.104,248.564 437.557,246.252 440.109,243.269 C441.598,241.531 442.456,239.574 442.456,237.495 C442.456,230.379 432.64,224.611 420.534,224.611 M412.842,212.787 C408.594,212.787 405.152,210.762 405.152,208.266 C405.152,205.77 408.594,203.746 412.842,203.746 C417.091,203.746 420.534,205.77 420.534,208.266 C420.534,210.762 417.091,212.787 412.842,212.787 M420.534,198.46 C413.053,198.46 406.454,200.667 402.498,204.029 C400.052,206.109 398.614,208.626 398.614,211.343 C398.614,217.115 405.075,222 413.975,223.639 L413.975,223.993 C414.292,223.919 414.611,223.85 414.932,223.786 C416.725,224.063 418.594,224.226 420.534,224.226 C423.039,224.226 425.433,223.967 427.675,223.512 C433.104,222.413 437.557,220.099 440.109,217.118 C441.598,215.379 442.456,213.421 442.456,211.343 C442.456,204.228 432.64,198.46 420.534,198.46 M412.842,186.635 C408.594,186.635 405.152,184.611 405.152,182.115 C405.152,179.619 408.594,177.595 412.842,177.595 C417.091,177.595 420.534,179.619 420.534,182.115 C420.534,184.611 417.091,186.635 412.842,186.635 M420.534,172.308 C413.053,172.308 406.454,174.514 402.498,177.878 C400.052,179.958 398.614,182.474 398.614,185.192 C398.614,190.963 405.075,195.848 413.975,197.488 L413.975,197.841 C414.292,197.766 414.611,197.699 414.932,197.634 C416.725,197.912 418.594,198.075 420.534,198.075 C423.039,198.075 425.433,197.816 427.675,197.361 C433.104,196.261 437.557,193.948 440.109,190.966 C441.598,189.228 442.456,187.27 442.456,185.192 C442.456,178.077 432.64,172.308 420.534,172.308 M361.223,265.088 C356.974,265.088 353.532,263.065 353.532,260.569 C353.532,258.073 356.974,256.048 361.223,256.048 C365.472,256.048 368.917,258.073 368.917,260.569 C368.917,263.065 365.472,265.088 361.223,265.088 M368.917,250.762 C361.434,250.762 354.834,252.969 350.878,256.334 C348.435,258.412 346.995,260.928 346.995,263.646 C346.995,269.266 353.131,274.035 361.672,275.794 L361.672,276.459 C362.208,276.32 362.757,276.202 363.313,276.088 C365.105,276.367 366.975,276.53 368.917,276.53 C371.419,276.53 373.816,276.27 376.057,275.815 C381.486,274.715 385.939,272.403 388.491,269.42 C389.98,267.682 390.837,265.725 390.837,263.646 C390.837,256.531 381.022,250.762 368.917,250.762 M361.223,238.938 C356.974,238.938 353.532,236.914 353.532,234.418 C353.532,231.921 356.974,229.897 361.223,229.897 C365.472,229.897 368.917,231.921 368.917,234.418 C368.917,236.914 365.472,238.938 361.223,238.938 M368.917,224.611 C361.434,224.611 354.834,226.818 350.878,230.18 C348.435,232.26 346.995,234.777 346.995,237.495 C346.995,243.115 353.131,247.881 361.672,249.642 L361.672,250.307 C362.208,250.169 362.757,250.05 363.313,249.937 C365.105,250.216 366.975,250.378 368.917,250.378 C371.419,250.378 373.816,250.119 376.057,249.664 C381.486,248.564 385.939,246.252 388.491,243.269 C389.98,241.531 390.837,239.574 390.837,237.495 C390.837,230.379 381.022,224.611 368.917,224.611 M361.223,212.787 C356.974,212.787 353.532,210.762 353.532,208.266 C353.532,205.77 356.974,203.746 361.223,203.746 C365.472,203.746 368.917,205.77 368.917,208.266 C368.917,210.762 365.472,212.787 361.223,212.787 M368.917,198.46 C361.434,198.46 354.834,200.667 350.878,204.029 C348.435,206.109 346.995,208.626 346.995,211.343 C346.995,216.964 353.131,221.73 361.672,223.491 L361.672,224.156 C362.208,224.017 362.757,223.899 363.313,223.786 C365.105,224.063 366.975,224.226 368.917,224.226 C371.419,224.226 373.816,223.967 376.057,223.512 C381.486,222.413 385.939,220.099 388.491,217.118 C389.98,215.379 390.837,213.421 390.837,211.343 C390.837,204.228 381.022,198.46 368.917,198.46 M361.223,186.635 C356.974,186.635 353.532,184.611 353.532,182.115 C353.532,179.619 356.974,177.595 361.223,177.595 C365.472,177.595 368.917,179.619 368.917,182.115 C368.917,184.611 365.472,186.635 361.223,186.635 M368.917,172.308 C361.434,172.308 354.834,174.514 350.878,177.878 C348.435,179.958 346.995,182.474 346.995,185.192 C346.995,190.813 353.131,195.58 361.672,197.339 L361.672,198.004 C362.208,197.866 362.757,197.748 363.313,197.634 C365.105,197.912 366.975,198.075 368.917,198.075 C371.419,198.075 373.816,197.816 376.057,197.361 C381.486,196.261 385.939,193.948 388.491,190.966 C389.98,189.228 390.837,187.27 390.837,185.192 C390.837,178.077 381.022,172.308 368.917,172.308 M309.605,265.088 C305.356,265.088 301.915,263.065 301.915,260.569 C301.915,258.073 305.356,256.048 309.605,256.048 C313.852,256.048 317.297,258.073 317.297,260.569 C317.297,263.065 313.852,265.088 309.605,265.088 M317.297,250.762 C309.815,250.762 303.215,252.969 299.259,256.334 C296.814,258.412 295.375,260.928 295.375,263.646 C295.375,269.454 301.918,274.361 310.908,275.969 L310.908,276.257 C311.168,276.199 311.429,276.141 311.694,276.088 C313.486,276.367 315.357,276.53 317.297,276.53 C319.801,276.53 322.196,276.27 324.438,275.815 C329.867,274.715 334.32,272.403 336.872,269.42 C338.359,267.682 339.218,265.725 339.218,263.646 C339.218,256.531 329.404,250.762 317.297,250.762 M309.605,238.938 C305.356,238.938 301.915,236.914 301.915,234.418 C301.915,231.921 305.356,229.897 309.605,229.897 C313.852,229.897 317.297,231.921 317.297,234.418 C317.297,236.914 313.852,238.938 309.605,238.938 M317.297,224.611 C309.815,224.611 303.215,226.818 299.259,230.18 C296.814,232.26 295.375,234.777 295.375,237.495 C295.375,243.302 301.918,248.21 310.908,249.818 L310.908,250.106 C311.168,250.047 311.429,249.99 311.694,249.937 C313.486,250.216 315.357,250.378 317.297,250.378 C319.801,250.378 322.196,250.119 324.438,249.664 C329.867,248.564 334.32,246.252 336.872,243.269 C338.359,241.531 339.218,239.574 339.218,237.495 C339.218,230.379 329.404,224.611 317.297,224.611 M309.605,212.787 C305.356,212.787 301.915,210.762 301.915,208.266 C301.915,205.77 305.356,203.746 309.605,203.746 C313.852,203.746 317.297,205.77 317.297,208.266 C317.297,210.762 313.852,212.787 309.605,212.787 M317.297,198.46 C309.815,198.46 303.215,200.667 299.259,204.029 C296.814,206.109 295.375,208.626 295.375,211.343 C295.375,217.15 301.918,222.059 310.908,223.666 L310.908,223.955 C311.168,223.895 311.429,223.838 311.694,223.786 C313.486,224.063 315.357,224.226 317.297,224.226 C319.801,224.226 322.196,223.967 324.438,223.512 C329.867,222.413 334.32,220.099 336.872,217.118 C338.359,215.379 339.218,213.421 339.218,211.343 C339.218,204.228 329.404,198.46 317.297,198.46 M309.605,186.635 C305.356,186.635 301.915,184.611 301.915,182.115 C301.915,179.619 305.356,177.595 309.605,177.595 C313.852,177.595 317.297,179.619 317.297,182.115 C317.297,184.611 313.852,186.635 309.605,186.635 M317.297,172.308 C309.815,172.308 303.215,174.514 299.259,177.878 C296.814,179.958 295.375,182.474 295.375,185.192 C295.375,190.999 301.918,195.908 310.908,197.514 L310.908,197.803 C311.168,197.744 311.429,197.687 311.694,197.634 C313.486,197.912 315.357,198.075 317.297,198.075 C319.801,198.075 322.196,197.816 324.438,197.361 C329.867,196.261 334.32,193.948 336.872,190.966 C338.359,189.228 339.218,187.27 339.218,185.192 C339.218,178.077 329.404,172.308 317.297,172.308 M257.987,265.088 C253.738,265.088 250.294,263.065 250.294,260.569 C250.294,258.073 253.738,256.048 257.987,256.048 C262.233,256.048 265.679,258.073 265.679,260.569 C265.679,263.065 262.233,265.088 257.987,265.088 M265.679,250.762 C258.194,250.762 251.595,252.969 247.641,256.334 C245.196,258.412 243.756,260.928 243.756,263.646 C243.756,269.304 249.974,274.099 258.605,275.831 L258.605,276.41 C259.085,276.291 259.579,276.189 260.076,276.088 C261.867,276.367 263.737,276.53 265.679,276.53 C268.182,276.53 270.577,276.27 272.817,275.815 C278.247,274.715 282.7,272.403 285.251,269.42 C286.741,267.682 287.598,265.725 287.598,263.646 C287.598,256.531 277.783,250.762 265.679,250.762 M257.987,238.938 C253.738,238.938 250.294,236.914 250.294,234.418 C250.294,231.921 253.738,229.897 257.987,229.897 C262.233,229.897 265.679,231.921 265.679,234.418 C265.679,236.914 262.233,238.938 257.987,238.938 M265.679,224.611 C258.194,224.611 251.595,226.818 247.641,230.18 C245.196,232.26 243.756,234.777 243.756,237.495 C243.756,243.153 249.974,247.948 258.605,249.679 L258.605,250.258 C259.085,250.139 259.579,250.039 260.076,249.937 C261.867,250.216 263.737,250.378 265.679,250.378 C268.182,250.378 270.577,250.119 272.817,249.664 C278.247,248.564 282.7,246.252 285.251,243.269 C286.741,241.531 287.598,239.574 287.598,237.495 C287.598,230.379 277.783,224.611 265.679,224.611 M257.987,212.787 C253.738,212.787 250.294,210.762 250.294,208.266 C250.294,205.77 253.738,203.746 257.987,203.746 C262.233,203.746 265.679,205.77 265.679,208.266 C265.679,210.762 262.233,212.787 257.987,212.787 M265.679,198.46 C258.194,198.46 251.595,200.667 247.641,204.029 C245.196,206.109 243.756,208.626 243.756,211.343 C243.756,217.002 249.974,221.796 258.605,223.528 L258.605,224.107 C259.085,223.988 259.579,223.887 260.076,223.786 C261.867,224.063 263.737,224.226 265.679,224.226 C268.182,224.226 270.577,223.967 272.817,223.512 C278.247,222.413 282.7,220.099 285.251,217.118 C286.741,215.379 287.598,213.421 287.598,211.343 C287.598,204.228 277.783,198.46 265.679,198.46 M257.987,186.635 C253.738,186.635 250.294,184.611 250.294,182.115 C250.294,179.619 253.738,177.595 257.987,177.595 C262.233,177.595 265.679,179.619 265.679,182.115 C265.679,184.611 262.233,186.635 257.987,186.635 M265.679,172.308 C258.194,172.308 251.595,174.514 247.641,177.878 C245.196,179.958 243.756,182.474 243.756,185.192 C243.756,190.85 249.974,195.645 258.605,197.377 L258.605,197.956 C259.085,197.836 259.579,197.736 260.076,197.634 C261.867,197.912 263.737,198.075 265.679,198.075 C268.182,198.075 270.577,197.816 272.817,197.361 C278.247,196.261 282.7,193.948 285.251,190.966 C286.741,189.228 287.598,187.27 287.598,185.192 C287.598,178.077 277.783,172.308 265.679,172.308 M206.367,265.088 C202.118,265.088 198.676,263.065 198.676,260.569 C198.676,258.073 202.118,256.048 206.367,256.048 C210.615,256.048 214.059,258.073 214.059,260.569 C214.059,263.065 210.615,265.088 206.367,265.088 M214.059,250.762 C206.577,250.762 199.979,252.969 196.021,256.334 C193.577,258.412 192.138,260.928 192.138,263.646 C192.138,269.49 198.765,274.419 207.841,275.995 L207.841,276.221 C208.045,276.174 208.25,276.131 208.457,276.088 C210.249,276.367 212.119,276.53 214.059,276.53 C216.562,276.53 218.958,276.27 221.2,275.815 C226.628,274.715 231.082,272.403 233.634,269.42 C235.121,267.682 235.979,265.725 235.979,263.646 C235.979,256.531 226.165,250.762 214.059,250.762 M206.367,238.938 C202.118,238.938 198.676,236.914 198.676,234.418 C198.676,231.921 202.118,229.897 206.367,229.897 C210.615,229.897 214.059,231.921 214.059,234.418 C214.059,236.914 210.615,238.938 206.367,238.938 M214.059,224.611 C206.577,224.611 199.979,226.818 196.021,230.18 C193.577,232.26 192.138,234.777 192.138,237.495 C192.138,243.338 198.765,248.267 207.841,249.844 L207.841,250.07 C208.045,250.023 208.25,249.98 208.457,249.937 C210.249,250.216 212.119,250.378 214.059,250.378 C216.562,250.378 218.958,250.119 221.2,249.664 C226.628,248.564 231.082,246.252 233.634,243.269 C235.121,241.531 235.979,239.574 235.979,237.495 C235.979,230.379 226.165,224.611 214.059,224.611 M206.367,212.787 C202.118,212.787 198.676,210.762 198.676,208.266 C198.676,205.77 202.118,203.746 206.367,203.746 C210.615,203.746 214.059,205.77 214.059,208.266 C214.059,210.762 210.615,212.787 206.367,212.787 M214.059,198.46 C206.577,198.46 199.979,200.667 196.021,204.029 C193.577,206.109 192.138,208.626 192.138,211.343 C192.138,217.187 198.765,222.116 207.841,223.693 L207.841,223.919 C208.045,223.872 208.25,223.828 208.457,223.786 C210.249,224.063 212.119,224.226 214.059,224.226 C216.562,224.226 218.958,223.967 221.2,223.512 C226.628,222.413 231.082,220.099 233.634,217.118 C235.121,215.379 235.979,213.421 235.979,211.343 C235.979,204.228 226.165,198.46 214.059,198.46 M206.367,186.635 C202.118,186.635 198.676,184.611 198.676,182.115 C198.676,179.619 202.118,177.595 206.367,177.595 C210.615,177.595 214.059,179.619 214.059,182.115 C214.059,184.611 210.615,186.635 206.367,186.635 M214.059,172.308 C206.577,172.308 199.979,174.514 196.021,177.878 C193.577,179.958 192.138,182.474 192.138,185.192 C192.138,191.036 198.765,195.964 207.841,197.542 L207.841,197.766 C208.045,197.72 208.25,197.676 208.457,197.634 C210.249,197.912 212.119,198.075 214.059,198.075 C216.562,198.075 218.958,197.816 221.2,197.361 C226.628,196.261 231.082,193.948 233.634,190.966 C235.121,189.228 235.979,187.27 235.979,185.192 C235.979,178.077 226.165,172.308 214.059,172.308 M154.747,265.088 C150.5,265.088 147.056,263.065 147.056,260.569 C147.056,258.073 150.5,256.048 154.747,256.048 C158.995,256.048 162.438,258.073 162.438,260.569 C162.438,263.065 158.995,265.088 154.747,265.088 M162.438,250.762 C154.957,250.762 148.359,252.969 144.403,256.334 C141.958,258.412 140.518,260.928 140.518,263.646 C140.518,269.342 146.817,274.166 155.538,275.869 L155.538,276.369 C155.961,276.263 156.401,276.177 156.836,276.088 C158.628,276.367 160.5,276.53 162.438,276.53 C164.941,276.53 167.338,276.27 169.58,275.815 C175.009,274.715 179.461,272.403 182.014,269.42 C183.503,267.682 184.359,265.725 184.359,263.646 C184.359,256.531 174.545,250.762 162.438,250.762 M154.747,238.938 C150.5,238.938 147.056,236.914 147.056,234.418 C147.056,231.921 150.5,229.897 154.747,229.897 C158.995,229.897 162.438,231.921 162.438,234.418 C162.438,236.914 158.995,238.938 154.747,238.938 M162.438,224.611 C154.957,224.611 148.359,226.818 144.403,230.18 C141.958,232.26 140.518,234.777 140.518,237.495 C140.518,243.191 146.817,248.014 155.538,249.717 L155.538,250.217 C155.961,250.112 156.401,250.026 156.836,249.937 C158.628,250.216 160.5,250.378 162.438,250.378 C164.941,250.378 167.338,250.119 169.58,249.664 C175.009,248.564 179.461,246.252 182.014,243.269 C183.503,241.531 184.359,239.574 184.359,237.495 C184.359,230.379 174.545,224.611 162.438,224.611 M154.747,212.787 C150.5,212.787 147.056,210.762 147.056,208.266 C147.056,205.77 150.5,203.746 154.747,203.746 C158.995,203.746 162.438,205.77 162.438,208.266 C162.438,210.762 158.995,212.787 154.747,212.787 M162.438,198.46 C154.957,198.46 148.359,200.667 144.403,204.029 C141.958,206.109 140.518,208.626 140.518,211.343 C140.518,217.04 146.817,221.863 155.538,223.566 L155.538,224.066 C155.961,223.961 156.401,223.875 156.836,223.786 C158.628,224.063 160.5,224.226 162.438,224.226 C164.941,224.226 167.338,223.967 169.58,223.512 C175.009,222.413 179.461,220.099 182.014,217.118 C183.503,215.379 184.359,213.421 184.359,211.343 C184.359,204.228 174.545,198.46 162.438,198.46 M154.747,186.635 C150.5,186.635 147.056,184.611 147.056,182.115 C147.056,179.619 150.5,177.595 154.747,177.595 C158.995,177.595 162.438,179.619 162.438,182.115 C162.438,184.611 158.995,186.635 154.747,186.635 M162.438,172.308 C154.957,172.308 148.359,174.514 144.403,177.878 C141.958,179.958 140.518,182.474 140.518,185.192 C140.518,190.888 146.817,195.711 155.538,197.414 L155.538,197.915 C155.961,197.809 156.401,197.723 156.836,197.634 C158.628,197.912 160.5,198.075 162.438,198.075 C164.941,198.075 167.338,197.816 169.58,197.361 C175.009,196.261 179.461,193.948 182.014,190.966 C183.503,189.228 184.359,187.27 184.359,185.192 C184.359,178.077 174.545,172.308 162.438,172.308 M103.128,265.088 C98.88,265.088 95.438,263.065 95.438,260.569 C95.438,258.073 98.88,256.048 103.128,256.048 C107.376,256.048 110.821,258.073 110.821,260.569 C110.821,263.065 107.376,265.088 103.128,265.088 M110.821,250.762 C103.337,250.762 96.739,252.969 92.782,256.334 C90.338,258.412 88.898,260.928 88.898,263.646 C88.898,269.525 95.611,274.477 104.773,276.021 L104.773,276.183 C104.921,276.152 105.069,276.119 105.218,276.088 C107.009,276.367 108.879,276.53 110.821,276.53 C113.324,276.53 115.721,276.27 117.96,275.815 C123.391,274.715 127.844,272.403 130.394,269.42 C131.883,267.682 132.742,265.725 132.742,263.646 C132.742,256.531 122.927,250.762 110.821,250.762 M103.128,238.938 C98.88,238.938 95.438,236.914 95.438,234.418 C95.438,231.921 98.88,229.897 103.128,229.897 C107.376,229.897 110.821,231.921 110.821,234.418 C110.821,236.914 107.376,238.938 103.128,238.938 M110.821,224.611 C103.337,224.611 96.739,226.818 92.782,230.18 C90.338,232.26 88.898,234.777 88.898,237.495 C88.898,243.374 95.611,248.326 104.773,249.87 L104.773,250.032 C104.921,250.001 105.069,249.967 105.218,249.937 C107.009,250.216 108.879,250.378 110.821,250.378 C113.324,250.378 115.721,250.119 117.96,249.664 C123.391,248.564 127.844,246.252 130.394,243.269 C131.883,241.531 132.742,239.574 132.742,237.495 C132.742,230.379 122.927,224.611 110.821,224.611 M103.128,212.787 C98.88,212.787 95.438,210.762 95.438,208.266 C95.438,205.77 98.88,203.746 103.128,203.746 C107.376,203.746 110.821,205.77 110.821,208.266 C110.821,210.762 107.376,212.787 103.128,212.787 M110.821,198.46 C103.337,198.46 96.739,200.667 92.782,204.029 C90.338,206.109 88.898,208.626 88.898,211.343 C88.898,217.222 95.611,222.173 104.773,223.718 L104.773,223.881 C104.921,223.849 105.069,223.816 105.218,223.786 C107.009,224.063 108.879,224.226 110.821,224.226 C113.324,224.226 115.721,223.967 117.96,223.512 C123.391,222.413 127.844,220.099 130.394,217.118 C131.883,215.379 132.742,213.421 132.742,211.343 C132.742,204.228 122.927,198.46 110.821,198.46 M103.128,186.635 C98.88,186.635 95.438,184.611 95.438,182.115 C95.438,179.619 98.88,177.595 103.128,177.595 C107.376,177.595 110.821,179.619 110.821,182.115 C110.821,184.611 107.376,186.635 103.128,186.635 M110.821,172.307 C103.338,172.307 96.739,174.514 92.784,177.877 C90.338,179.958 88.898,182.474 88.898,185.192 C88.898,191.071 95.611,196.022 104.773,197.567 L104.773,197.73 C104.921,197.698 105.069,197.665 105.218,197.634 C107.009,197.912 108.879,198.075 110.821,198.075 C113.324,198.075 115.721,197.816 117.96,197.361 C123.391,196.261 127.844,193.948 130.394,190.966 C131.883,189.228 132.742,187.27 132.742,185.192 C132.742,178.077 122.927,172.307 110.821,172.307 M51.509,265.088 C47.262,265.088 43.817,263.065 43.817,260.569 C43.817,258.073 47.262,256.048 51.509,256.048 C55.756,256.048 59.201,258.073 59.201,260.569 C59.201,263.065 55.756,265.088 51.509,265.088 M59.201,250.762 C51.718,250.762 45.121,252.969 41.164,256.334 C38.72,258.412 37.28,260.928 37.28,263.646 C37.28,269.38 43.658,274.233 52.471,275.904 L52.471,276.331 C52.84,276.242 53.22,276.167 53.598,276.088 C55.39,276.367 57.262,276.53 59.201,276.53 C61.704,276.53 64.101,276.27 66.342,275.815 C71.77,274.715 76.224,272.403 78.776,269.42 C80.264,267.682 81.122,265.725 81.122,263.646 C81.122,256.531 71.308,250.762 59.201,250.762 M51.509,238.938 C47.262,238.938 43.817,236.914 43.817,234.418 C43.817,231.921 47.262,229.897 51.509,229.897 C55.756,229.897 59.201,231.921 59.201,234.418 C59.201,236.914 55.756,238.938 51.509,238.938 M59.201,224.611 C51.718,224.611 45.121,226.818 41.164,230.18 C38.72,232.26 37.28,234.777 37.28,237.495 C37.28,243.228 43.658,248.082 52.471,249.753 L52.471,250.179 C52.84,250.09 53.22,250.015 53.598,249.937 C55.39,250.216 57.262,250.378 59.201,250.378 C61.704,250.378 64.101,250.119 66.342,249.664 C71.77,248.564 76.224,246.252 78.776,243.269 C80.264,241.531 81.122,239.574 81.122,237.495 C81.122,230.379 71.308,224.611 59.201,224.611 M51.509,212.787 C47.262,212.787 43.817,210.762 43.817,208.266 C43.817,205.77 47.262,203.746 51.509,203.746 C55.756,203.746 59.201,205.77 59.201,208.266 C59.201,210.762 55.756,212.787 51.509,212.787 M59.201,198.46 C51.718,198.46 45.121,200.667 41.164,204.029 C38.72,206.109 37.28,208.626 37.28,211.343 C37.28,217.077 43.658,221.93 52.471,223.601 L52.471,224.028 C52.84,223.939 53.22,223.865 53.598,223.786 C55.39,224.063 57.262,224.226 59.201,224.226 C61.704,224.226 64.101,223.967 66.342,223.512 C71.77,222.413 76.224,220.099 78.776,217.118 C80.264,215.379 81.122,213.421 81.122,211.343 C81.122,204.228 71.308,198.46 59.201,198.46 M51.509,186.635 C47.262,186.635 43.817,184.611 43.817,182.115 C43.817,179.619 47.262,177.595 51.509,177.595 C55.756,177.595 59.201,179.619 59.201,182.115 C59.201,184.611 55.756,186.635 51.509,186.635 M59.201,172.308 C51.718,172.308 45.121,174.514 41.164,177.878 C38.72,179.958 37.28,182.474 37.28,185.192 C37.28,190.925 43.658,195.78 52.471,197.45 L52.471,197.877 C52.84,197.788 53.22,197.713 53.598,197.634 C55.39,197.912 57.262,198.075 59.201,198.075 C61.704,198.075 64.101,197.816 66.342,197.361 C71.77,196.261 76.224,193.948 78.776,190.966 C80.264,189.228 81.122,187.27 81.122,185.192 C81.122,178.077 71.308,172.308 59.201,172.308 M51.509,77.414 C47.262,77.414 43.817,75.391 43.817,72.894 C43.817,70.397 47.262,68.373 51.509,68.373 C55.756,68.373 59.201,70.397 59.201,72.894 C59.201,75.391 55.756,77.414 51.509,77.414 M59.201,63.087 C51.718,63.087 45.121,65.294 41.164,68.656 C38.72,70.736 37.28,73.253 37.28,75.971 C37.28,81.706 43.658,86.559 52.471,88.23 L52.471,88.656 C52.84,88.566 53.22,88.492 53.598,88.414 C55.389,88.691 57.262,88.854 59.201,88.854 C61.704,88.854 64.101,88.596 66.342,88.14 C71.77,87.041 76.224,84.728 78.776,81.748 C80.264,80.007 81.122,78.049 81.122,75.971 C81.122,68.855 71.308,63.087 59.201,63.087" fill="#1A1919"/>
  </g>
</svg>
