<?xml version="1.0"?>
<svg xmlns:rdf="http://www.w3.org/1999/02/22-rdf-syntax-ns#" xmlns="http://www.w3.org/2000/svg" xmlns:cc="http://creativecommons.org/ns#" xmlns:dc="http://purl.org/dc/elements/1.1/" xmlns:svg="http://www.w3.org/2000/svg" id="svg2" xml:space="preserve" viewBox="-19.342 -26.561 435.64999 334.42499" version="1.1" y="0px" x="0px" enable-background="new -19.342 -26.561 480 375">
<polygon id="polygon4" fill="#dcb4dc" fill-opacity=".15" transform="translate(-19.342,-26.561)" stroke="#000" stroke-linecap="round" stroke-width="4" points="294.65 292.43 433.65 153.43 157.65 153.43 18.649 292.43"/>
<path id="path6" d="m58.136 207.04c22.59 1.379 39.041 8.855 43.758 21.992 3.911 10.892-0.876 23.911-12.06 36.84" stroke="#000" stroke-linecap="round" stroke-width="6" fill="none"/>
<line id="line8" stroke-width="7.75" x1="1.934" x2="114.67" stroke="#e12828" stroke-linecap="round" y1="263.24" y2="150.51" fill="none"/>
<polygon id="polygon10" points="136.73 200.73 134.01 177.07 110.35 174.35 157.65 153.43" transform="translate(-19.342,-26.561)" fill="#e12828"/>
<line id="line12" stroke-width="7.75" x1="-.693" x2="241.88" stroke="#2828ff" stroke-linecap="round" y1="265.87" y2="265.87" fill="none"/>
<polygon id="polygon14" points="246.41 311.08 261.22 292.43 246.41 273.78 294.65 292.43" transform="translate(-19.342,-26.561)" fill="#2828ff"/>
<line id="line16" stroke-width="7.75" x1="-.693" x2="-.693" stroke="#963c96" stroke-linecap="round" y1="265.87" y2="6.869" fill="none"/>
<polygon id="polygon18" points="37.301 48.24 18.649 33.43 0 48.24 18.649 0" transform="translate(-19.342,-26.561)" fill="#963c96"/>
	<path id="path20" d="m34.832 81.849-0.308-0.103c-1.121 1.094-2.212 1.887-3.271 2.379s-2.184 0.738-3.373 0.738c-1.75 0-3.138-0.461-4.163-1.384s-1.538-2.157-1.538-3.702c0-2.01 0.987-3.592 2.963-4.748s4.974-1.883 8.993-2.184v-1.956c0-1.271-0.144-2.252-0.431-2.943s-0.656-1.176-1.107-1.456-0.991-0.42-1.62-0.42-1.173 0.109-1.63 0.328c-0.459 0.219-0.872 0.632-1.241 1.241s-0.643 1.453-0.82 2.533h-3.876v-3.733c1.572-0.697 2.902-1.22 3.988-1.569 1.088-0.349 2.099-0.605 3.035-0.769s1.836-0.246 2.697-0.246c1.654 0 2.977 0.219 3.969 0.656 0.99 0.438 1.732 1.148 2.225 2.133s0.738 2.345 0.738 4.081v7.998c0 1.162 0.034 1.986 0.103 2.471s0.175 0.837 0.317 1.056c0.145 0.219 0.328 0.39 0.555 0.513 0.225 0.123 0.639 0.26 1.24 0.41v1.354h-7.629l0.184-2.68zm-0.677-6.99c-2.119 0.055-3.688 0.451-4.707 1.189s-1.527 1.818-1.527 3.24c0 0.848 0.232 1.494 0.697 1.938s1.107 0.667 1.928 0.667c0.629 0 1.224-0.167 1.784-0.502s1.005-0.783 1.333-1.343 0.492-1.155 0.492-1.784v-3.42z" fill="#2828ff"/>
	<path id="path22" d="m62.935 72.56 9.208 9.311-2.051 2.051-9.188-9.372-9.475 9.29-1.907-1.928 9.372-9.352-9.331-9.208 2.051-2.051 9.29 9.27 9.29-9.27 1.928 1.907-9.187 9.355z"/>
	<path id="path24" d="m81.508 62.245c0-1.299-0.021-2.242-0.062-2.83s-0.127-1.042-0.256-1.364c-0.131-0.321-0.328-0.574-0.596-0.759-0.266-0.185-0.734-0.345-1.404-0.482v-1.354l5.722-0.287h2.522v11.751l0.021 0.021c1.217-1.135 2.32-1.931 3.312-2.389s2.007-0.687 3.046-0.687c2.434 0 4.259 0.858 5.476 2.574s1.825 4.283 1.825 7.701c0 3.568-0.804 6.248-2.409 8.039-1.607 1.791-3.982 2.687-7.127 2.687-2.16 0-4.136-0.39-5.927-1.169l-1.518 1.169-2.625-0.369v-22.254zm5.92 15.564c0 1.682 0.29 2.922 0.871 3.722s1.48 1.2 2.697 1.2c1.258 0 2.218-0.66 2.881-1.979s0.995-3.203 0.995-5.65c0-2.693-0.294-4.703-0.882-6.029s-1.504-1.989-2.748-1.989c-0.602 0-1.196 0.157-1.784 0.472s-1.073 0.762-1.456 1.343-0.574 1.22-0.574 1.917v6.996z" fill="#e12828"/>
	<path id="path26" d="m179.87 207.36h-3.158v-38.166h3.158v38.17z"/>
	<path id="path28" d="m201.22 195.85-0.308-0.102c-1.121 1.094-2.212 1.887-3.271 2.379s-2.184 0.738-3.373 0.738c-1.75 0-3.138-0.462-4.163-1.385s-1.538-2.156-1.538-3.701c0-2.01 0.987-3.593 2.963-4.748s4.974-1.883 8.993-2.184v-1.949c0-1.271-0.144-2.252-0.431-2.942s-0.656-1.176-1.107-1.456-0.991-0.42-1.62-0.42-1.173 0.109-1.63 0.328c-0.459 0.219-0.872 0.632-1.241 1.24s-0.643 1.453-0.82 2.533h-3.876v-3.732c1.572-0.697 2.902-1.221 3.988-1.569 1.088-0.349 2.099-0.604 3.035-0.769s1.836-0.246 2.697-0.246c1.654 0 2.977 0.219 3.969 0.656 0.99 0.438 1.732 1.148 2.225 2.133s0.738 2.344 0.738 4.08v7.998c0 1.162 0.034 1.986 0.103 2.472s0.175 0.837 0.317 1.056c0.145 0.219 0.328 0.391 0.555 0.514 0.225 0.123 0.639 0.26 1.24 0.41v1.354h-7.629l0.17-2.68zm-0.67-6.99c-2.119 0.055-3.688 0.451-4.707 1.189s-1.527 1.818-1.527 3.24c0 0.848 0.232 1.493 0.697 1.938s1.107 0.666 1.928 0.666c0.629 0 1.224-0.167 1.784-0.502s1.005-0.783 1.333-1.344 0.492-1.154 0.492-1.783v-3.42z" fill="#2828ff"/>
	<path id="path30" d="m229.33 186.56 9.208 9.311-2.051 2.051-9.188-9.373-9.475 9.291-1.907-1.928 9.372-9.352-9.331-9.209 2.051-2.05 9.29 9.269 9.29-9.269 1.928 1.908-9.18 9.35z"/>
	<path id="path32" d="m247.89 176.25c0-1.299-0.021-2.242-0.062-2.83s-0.127-1.042-0.256-1.364c-0.131-0.321-0.328-0.574-0.596-0.759-0.266-0.185-0.734-0.345-1.404-0.482v-1.354l5.722-0.287h2.522v11.75l0.021 0.021c1.217-1.135 2.32-1.932 3.312-2.39s2.007-0.687 3.046-0.687c2.434 0 4.259 0.857 5.476 2.573s1.825 4.282 1.825 7.7c0 3.568-0.804 6.248-2.409 8.039-1.607 1.791-3.982 2.688-7.127 2.688-2.16 0-4.136-0.391-5.927-1.17l-1.518 1.17-2.625-0.369v-22.25zm5.93 15.56c0 1.682 0.29 2.922 0.871 3.722s1.48 1.2 2.697 1.2c1.258 0 2.218-0.66 2.881-1.979s0.995-3.202 0.995-5.649c0-2.693-0.294-4.703-0.882-6.029s-1.504-1.99-2.748-1.99c-0.602 0-1.196 0.158-1.784 0.473s-1.073 0.762-1.456 1.343-0.574 1.22-0.574 1.917v7z" fill="#e12828"/>
	<path id="path34" d="m280.1 207.36h-3.158v-38.166h3.158v38.17z"/>
	<path id="path36" d="m132.17 304.85-0.308-0.102c-1.121 1.094-2.212 1.887-3.271 2.379s-2.184 0.738-3.373 0.738c-1.75 0-3.138-0.462-4.163-1.385s-1.538-2.156-1.538-3.701c0-2.01 0.987-3.593 2.963-4.748s4.974-1.883 8.993-2.184v-1.949c0-1.271-0.144-2.252-0.431-2.942s-0.656-1.176-1.107-1.456-0.991-0.42-1.62-0.42-1.173 0.109-1.63 0.328c-0.459 0.219-0.872 0.632-1.241 1.24s-0.643 1.453-0.82 2.533h-3.876v-3.732c1.572-0.697 2.902-1.221 3.988-1.569 1.088-0.349 2.099-0.604 3.035-0.769s1.836-0.246 2.697-0.246c1.654 0 2.977 0.219 3.969 0.656 0.99 0.438 1.732 1.148 2.225 2.133s0.738 2.344 0.738 4.08v7.998c0 1.162 0.034 1.986 0.103 2.472s0.175 0.837 0.317 1.056c0.145 0.219 0.328 0.391 0.555 0.514 0.225 0.123 0.639 0.26 1.24 0.41v1.354h-7.629l0.18-2.68zm-0.68-6.99c-2.119 0.055-3.688 0.451-4.707 1.189s-1.527 1.818-1.527 3.24c0 0.848 0.232 1.493 0.697 1.938s1.107 0.666 1.928 0.666c0.629 0 1.224-0.167 1.784-0.502s1.005-0.783 1.333-1.344 0.492-1.154 0.492-1.783v-3.42z" fill="#2828ff"/>
	<path id="path38" d="m39.542 165.25c0-1.299-0.021-2.242-0.062-2.83s-0.127-1.042-0.256-1.364c-0.131-0.321-0.328-0.574-0.596-0.759-0.266-0.185-0.734-0.345-1.404-0.482v-1.354l5.722-0.287h2.522v11.751l0.021 0.021c1.217-1.135 2.32-1.931 3.312-2.389s2.007-0.687 3.046-0.687c2.434 0 4.259 0.858 5.476 2.574s1.825 4.283 1.825 7.7c0 3.568-0.804 6.248-2.409 8.039-1.607 1.791-3.982 2.688-7.127 2.688-2.16 0-4.136-0.391-5.927-1.17l-1.518 1.17-2.625-0.369v-22.25zm5.927 15.56c0 1.682 0.29 2.922 0.871 3.722s1.48 1.2 2.697 1.2c1.258 0 2.218-0.66 2.881-1.979s0.995-3.202 0.995-5.649c0-2.694-0.294-4.704-0.882-6.03s-1.504-1.989-2.748-1.989c-0.602 0-1.196 0.157-1.784 0.472s-1.073 0.762-1.456 1.343-0.574 1.22-0.574 1.917v7z" fill="#e12828"/>
	<path id="path40" d="m122.72 227.53c-2.037 0-3.555-0.623-4.553-1.867s-1.497-3.109-1.497-5.598c0-1.354 0.15-3.021 0.451-5.004s0.796-4.01 1.486-6.081 1.58-3.91 2.666-5.517c1.088-1.606 2.338-2.844 3.754-3.712 1.414-0.868 2.949-1.302 4.604-1.302 3.965 0 5.947 2.516 5.947 7.547 0 1.422-0.161 3.12-0.482 5.096s-0.83 3.988-1.527 6.039-1.579 3.866-2.646 5.445-2.297 2.799-3.691 3.66-2.9 1.29-4.51 1.29zm8.1-13.59h-9.844c-0.643 2.967-0.964 5.463-0.964 7.486 0 1.531 0.232 2.655 0.697 3.373s1.217 1.076 2.256 1.076c1.531 0 2.983-1.028 4.358-3.086 1.36-2.06 2.52-5.01 3.48-8.85zm-9.35-2.1h9.823c0.643-2.885 0.964-5.365 0.964-7.443 0-1.436-0.232-2.51-0.697-3.221s-1.189-1.066-2.174-1.066c-1.6 0-3.08 1.012-4.439 3.035-1.36 2.03-2.52 4.93-3.47 8.7z"/>
<metadata><rdf:RDF><cc:Work><dc:format>image/svg+xml</dc:format><dc:type rdf:resource="http://purl.org/dc/dcmitype/StillImage"/><cc:license rdf:resource="http://creativecommons.org/licenses/publicdomain/"/><dc:publisher><cc:Agent rdf:about="http://openclipart.org/"><dc:title>Openclipart</dc:title></cc:Agent></dc:publisher><dc:title>Cross Product Parallelogram</dc:title><dc:date>2013-08-28T20:08:33</dc:date><dc:description>Public Domain Source http://en.wikipedia.org/wiki/Josiah_Willard_Gibbs </dc:description><dc:source>http://openclipart.org/detail/182442/cross-product-parallelogram-by-Magirly-182442</dc:source><dc:creator><cc:Agent><dc:title>Magirly</dc:title></cc:Agent></dc:creator><dc:subject><rdf:Bag><rdf:li>chemistry</rdf:li><rdf:li>cross_product</rdf:li><rdf:li>parallelogram</rdf:li><rdf:li>upload2openclipart</rdf:li></rdf:Bag></dc:subject></cc:Work><cc:License rdf:about="http://creativecommons.org/licenses/publicdomain/"><cc:permits rdf:resource="http://creativecommons.org/ns#Reproduction"/><cc:permits rdf:resource="http://creativecommons.org/ns#Distribution"/><cc:permits rdf:resource="http://creativecommons.org/ns#DerivativeWorks"/></cc:License></rdf:RDF></metadata></svg>
