<?xml version='1.0' encoding='ascii'?>
<svg xmlns="http://www.w3.org/2000/svg" height="540" version="1.1" width="960">
    <g id="RenderLayer_LineSet" inkscape:groupmode="lineset" inkscape:label="RenderLayer_LineSet" xmlns:inkscape="http://www.inkscape.org/namespaces/inkscape">
        <g id="frame_0000" inkscape:groupmode="frame" inkscape:label="frame_0000">
            <g id="strokes" inkscape:groupmode="layer" inkscape:label="strokes" xmlns:inkscape="http://www.inkscape.org/namespaces/inkscape">
                <path d=" M 362.829, 185.865 354.469, 180.377 346.109, 174.890 337.750, 169.402 329.390, 163.915 326.473, 162.000 316.473, 162.002 306.905, 162.004 302.821, 171.132 298.737, 180.261 294.653, 189.389 290.570, 198.517 286.997, 206.502 295.246, 212.156 303.494, 217.809 311.743, 223.462 319.991, 229.116 328.240, 234.769 336.489, 240.423 344.737, 246.076 352.986, 251.729 361.234, 257.383 364.416, 259.563 " fill="none" stroke="rgb(0, 0, 0)" stroke-linecap="butt" stroke-linejoin="bevel" stroke-opacity="1.0" stroke-width="3.0" />
                <path d=" M 537.922, 285.290 546.595, 280.314 555.269, 275.338 562.916, 270.951 571.589, 265.974 580.263, 260.998 588.937, 256.022 597.611, 251.045 606.285, 246.069 614.959, 241.093 623.633, 236.116 632.306, 231.140 640.980, 226.164 649.654, 221.187 658.328, 216.211 665.991, 211.814 661.155, 203.062 656.318, 194.309 651.482, 185.556 646.646, 176.803 641.810, 168.051 638.396, 161.873 628.396, 161.874 626.748, 161.874 618.203, 167.068 609.657, 172.261 601.112, 177.455 592.566, 182.648 584.020, 187.842 575.475, 193.035 566.929, 198.229 558.384, 203.423 552.457, 207.024 550.034, 208.497 " fill="none" stroke="rgb(0, 0, 0)" stroke-linecap="butt" stroke-linejoin="bevel" stroke-opacity="1.0" stroke-width="3.0" />
                <path d=" M 523.584, 289.373 532.250, 284.383 540.916, 279.393 549.582, 274.404 558.248, 269.414 562.903, 266.734 571.569, 261.744 580.235, 256.755 588.901, 251.765 597.568, 246.775 606.234, 241.786 614.900, 236.796 623.566, 231.806 632.232, 226.817 640.899, 221.827 649.565, 216.837 655.232, 213.574 " fill="none" stroke="rgb(0, 0, 0)" stroke-linecap="butt" stroke-linejoin="bevel" stroke-opacity="1.0" stroke-width="3.0" />
                <path d=" M 665.991, 211.814 656.122, 213.428 655.232, 213.574 650.407, 204.815 645.581, 196.057 640.756, 187.298 635.930, 178.539 631.104, 169.781 626.748, 161.874 " fill="none" stroke="rgb(0, 0, 0)" stroke-linecap="butt" stroke-linejoin="bevel" stroke-opacity="1.0" stroke-width="3.0" />
                <path d=" M 439.146, 370.074 439.149, 370.299 439.296, 380.298 439.443, 390.297 439.591, 400.296 439.738, 410.295 439.885, 420.294 440.032, 430.293 440.179, 440.292 440.326, 450.290 440.473, 460.289 440.620, 470.288 440.779, 481.089 440.926, 491.088 441.073, 501.087 441.220, 511.086 441.303, 516.732 441.396, 523.011 451.286, 524.486 461.177, 525.962 471.067, 527.438 480.958, 528.914 490.848, 530.389 492.574, 530.647 500.496, 524.545 508.419, 518.444 516.342, 512.342 524.265, 506.241 532.188, 500.139 540.111, 494.038 548.034, 487.936 550.015, 486.410 549.972, 476.410 549.928, 466.411 549.885, 456.411 549.842, 446.411 549.799, 436.411 549.756, 426.411 549.713, 416.411 549.669, 406.411 549.626, 396.411 549.583, 386.411 549.540, 376.411 549.497, 366.412 549.451, 355.867 " fill="none" stroke="rgb(0, 0, 0)" stroke-linecap="butt" stroke-linejoin="bevel" stroke-opacity="1.0" stroke-width="3.0" />
                <path d=" M 439.146, 370.074 449.114, 370.876 459.082, 371.678 469.049, 372.480 479.017, 373.282 488.985, 374.084 491.036, 374.249 491.039, 374.479 491.137, 384.479 491.235, 394.478 491.334, 404.478 491.432, 414.477 491.530, 424.477 491.628, 434.476 491.727, 444.476 491.825, 454.475 491.923, 464.475 492.022, 474.475 492.103, 482.728 492.201, 492.727 492.299, 502.727 492.397, 512.726 492.496, 522.726 492.574, 530.647 " fill="none" stroke="rgb(0, 0, 0)" stroke-linecap="butt" stroke-linejoin="bevel" stroke-opacity="1.0" stroke-width="3.0" />
                <path d=" M 441.303, 516.732 433.651, 521.855 423.760, 520.379 413.870, 518.904 403.979, 517.428 394.089, 515.952 385.063, 514.605 384.862, 504.607 384.662, 494.610 384.461, 484.612 384.260, 474.614 384.060, 464.616 383.859, 454.618 383.658, 444.620 383.457, 434.622 383.257, 424.624 383.056, 414.626 382.855, 404.628 382.654, 394.630 382.454, 384.632 382.253, 374.634 382.074, 365.701 382.069, 365.482 392.037, 366.284 402.005, 367.086 411.973, 367.888 421.940, 368.690 431.296, 369.442 431.299, 369.667 431.454, 379.665 431.608, 389.664 431.763, 399.663 431.917, 409.662 432.072, 419.661 432.226, 429.660 432.381, 439.658 432.535, 449.657 432.690, 459.656 432.844, 469.655 432.999, 479.654 433.153, 489.652 433.308, 499.651 433.462, 509.650 433.616, 519.649 433.651, 521.855 " fill="none" stroke="rgb(0, 0, 0)" stroke-linecap="butt" stroke-linejoin="bevel" stroke-opacity="1.0" stroke-width="3.0" />
                <path d=" M 422.504, 207.239 412.538, 208.063 402.572, 208.887 398.424, 209.230 388.458, 210.053 380.517, 210.710 370.551, 211.534 363.395, 212.126 363.610, 222.123 363.825, 232.121 364.040, 242.119 364.082, 244.067 364.297, 254.064 364.416, 259.563 364.631, 269.561 364.846, 279.558 365.061, 289.556 365.276, 299.554 365.492, 309.552 365.707, 319.549 365.922, 329.547 366.137, 339.545 366.352, 349.542 366.568, 359.540 366.673, 364.460 376.641, 365.263 382.074, 365.701 392.041, 366.504 402.009, 367.307 411.977, 368.110 421.944, 368.913 431.299, 369.667 439.149, 370.299 449.117, 371.102 451.059, 371.259 461.026, 372.062 470.994, 372.865 480.962, 373.668 491.039, 374.479 495.699, 374.855 502.796, 375.426 506.293, 375.708 515.379, 371.531 524.464, 367.354 533.550, 363.177 542.636, 359.000 549.451, 355.867 558.537, 351.689 563.154, 349.567 563.123, 339.567 563.093, 329.567 563.063, 319.567 563.032, 309.567 563.002, 299.567 562.972, 289.567 562.942, 279.567 562.916, 270.951 " fill="none" stroke="rgb(0, 0, 0)" stroke-linecap="butt" stroke-linejoin="bevel" stroke-opacity="1.0" stroke-width="3.0" />
                <path d=" M 504.932, 213.489 505.015, 223.489 505.086, 231.907 505.119, 235.794 505.203, 245.794 505.277, 254.674 505.361, 264.673 505.445, 274.673 505.529, 284.673 505.613, 294.672 505.697, 304.672 505.781, 314.672 505.865, 324.671 505.949, 334.671 506.040, 345.515 506.123, 355.515 506.207, 365.515 506.293, 375.708 " fill="none" stroke="rgb(0, 0, 0)" stroke-linecap="butt" stroke-linejoin="bevel" stroke-opacity="1.0" stroke-width="3.0" />
                <path d=" M 550.034, 208.497 540.095, 209.597 530.156, 210.697 520.216, 211.797 510.277, 212.897 509.117, 213.026 504.932, 213.489 494.932, 213.393 484.932, 213.296 474.933, 213.200 464.933, 213.104 454.934, 213.007 444.934, 212.911 434.935, 212.815 424.935, 212.718 422.592, 212.696 412.592, 212.600 403.424, 212.511 393.424, 212.415 383.424, 212.319 373.425, 212.222 363.395, 212.126 " fill="none" stroke="rgb(0, 0, 0)" stroke-linecap="butt" stroke-linejoin="bevel" stroke-opacity="1.0" stroke-width="3.0" />
                <path d=" M 472.213, 131.028 472.326, 141.027 472.346, 142.768 469.102, 142.838 459.104, 143.054 451.808, 143.212 451.802, 142.711 451.669, 132.712 451.654, 131.580 461.651, 131.311 471.647, 131.043 472.213, 131.028 " fill="none" stroke="rgb(0, 0, 0)" stroke-linecap="butt" stroke-linejoin="bevel" stroke-opacity="1.0" stroke-width="3.0" />
                <path d=" M 406.716, 132.785 406.889, 142.784 406.905, 143.691 406.914, 144.182 398.491, 144.364 388.494, 144.580 387.546, 144.601 387.355, 134.603 387.330, 133.305 397.326, 133.037 406.716, 132.785 " fill="none" stroke="rgb(0, 0, 0)" stroke-linecap="butt" stroke-linejoin="bevel" stroke-opacity="1.0" stroke-width="3.0" />
                <path d=" M 460.642, 142.518 460.655, 143.529 460.779, 153.528 460.787, 154.172 450.789, 154.338 440.790, 154.505 430.791, 154.671 420.793, 154.838 410.794, 155.004 400.796, 155.170 398.688, 155.206 398.507, 145.207 398.501, 144.925 398.491, 144.364 398.482, 143.875 400.896, 143.823 406.905, 143.691 416.903, 143.473 419.934, 143.407 429.932, 143.188 433.659, 143.107 443.656, 142.889 451.802, 142.711 460.642, 142.518 " fill="none" stroke="rgb(0, 0, 0)" stroke-linecap="butt" stroke-linejoin="bevel" stroke-opacity="1.0" stroke-width="3.0" />
                <path d=" M 483.059, 44.169 483.162, 54.168 483.264, 64.167 483.367, 74.167 483.470, 84.166 483.523, 89.388 473.533, 89.838 463.544, 90.289 453.554, 90.739 443.829, 91.178 443.690, 81.179 443.551, 71.180 443.412, 61.181 443.273, 51.182 443.211, 46.762 453.190, 46.112 463.169, 45.463 473.148, 44.813 483.059, 44.169 " fill="none" stroke="rgb(0, 0, 0)" stroke-linecap="butt" stroke-linejoin="bevel" stroke-opacity="1.0" stroke-width="3.0" />
                <path d=" M 413.278, 48.709 413.445, 58.708 413.611, 68.707 413.777, 78.705 413.944, 88.704 414.007, 92.522 404.017, 92.973 394.028, 93.423 384.038, 93.874 376.693, 94.205 376.492, 84.207 376.292, 74.209 376.091, 64.211 375.890, 54.213 375.829, 51.146 385.808, 50.497 395.786, 49.848 405.765, 49.198 413.278, 48.709 " fill="none" stroke="rgb(0, 0, 0)" stroke-linecap="butt" stroke-linejoin="bevel" stroke-opacity="1.0" stroke-width="3.0" />
                <path d=" M 562.650, 183.246 562.620, 173.246 562.590, 163.246 562.559, 153.246 562.529, 143.246 562.499, 133.246 562.469, 123.246 562.438, 113.246 562.408, 103.246 562.378, 93.246 562.347, 83.246 562.317, 73.246 562.287, 63.246 562.257, 53.246 562.226, 43.246 562.205, 36.251 552.645, 33.317 543.085, 30.383 533.526, 27.449 523.966, 24.515 514.406, 21.581 504.846, 18.647 503.292, 18.170 493.321, 18.927 483.350, 19.684 473.378, 20.440 463.407, 21.197 453.436, 21.953 443.464, 22.710 433.493, 23.467 423.522, 24.223 413.550, 24.980 403.579, 25.737 393.608, 26.493 383.636, 27.250 373.665, 28.006 363.694, 28.763 359.455, 29.085 359.670, 39.082 359.885, 49.080 360.100, 59.078 360.315, 69.075 360.531, 79.073 360.746, 89.071 360.961, 99.068 361.176, 109.066 361.391, 119.064 361.607, 129.062 361.822, 139.059 362.037, 149.057 362.252, 159.055 362.467, 169.052 362.683, 179.050 362.829, 185.865 362.845, 186.600 363.946, 186.598 373.946, 186.575 383.946, 186.552 393.946, 186.530 403.946, 186.507 413.946, 186.484 422.171, 186.465 432.171, 186.443 442.171, 186.420 451.624, 186.399 461.624, 186.376 471.624, 186.353 481.624, 186.330 481.990, 186.330 491.990, 186.307 501.990, 186.284 504.703, 186.278 508.902, 186.058 518.888, 185.536 528.874, 185.013 538.861, 184.490 548.847, 183.968 558.833, 183.445 562.650, 183.246 " fill="none" stroke="rgb(0, 0, 0)" stroke-linecap="butt" stroke-linejoin="bevel" stroke-opacity="1.0" stroke-width="3.0" />
                <path d=" M 503.292, 18.170 503.376, 28.170 503.460, 38.170 503.544, 48.169 503.628, 58.169 503.712, 68.169 503.796, 78.168 503.880, 88.168 503.964, 98.168 504.048, 108.167 504.132, 118.167 504.216, 128.166 504.299, 138.166 504.383, 148.166 504.467, 158.165 504.544, 167.299 504.628, 177.299 504.703, 186.278 " fill="none" stroke="rgb(0, 0, 0)" stroke-linecap="butt" stroke-linejoin="bevel" stroke-opacity="1.0" stroke-width="3.0" />
                <path d=" M 380.517, 210.710 372.177, 205.192 363.837, 199.674 355.497, 194.156 347.158, 188.638 338.818, 183.120 330.478, 177.602 322.138, 172.084 313.799, 166.566 306.905, 162.004 " fill="none" stroke="rgb(0, 0, 0)" stroke-linecap="butt" stroke-linejoin="bevel" stroke-opacity="1.0" stroke-width="3.0" />
                <path d=" M 422.171, 186.465 422.332, 196.464 422.492, 206.463 422.504, 207.239 422.592, 212.696 " fill="none" stroke="rgb(0, 0, 0)" stroke-linecap="butt" stroke-linejoin="bevel" stroke-opacity="1.0" stroke-width="3.0" />
                <path d=" M 398.424, 209.230 390.064, 203.742 381.704, 198.255 373.344, 192.767 364.985, 187.280 363.946, 186.598 " fill="none" stroke="rgb(0, 0, 0)" stroke-linecap="butt" stroke-linejoin="bevel" stroke-opacity="1.0" stroke-width="3.0" />
                <path d=" M 481.990, 186.330 482.095, 196.329 482.199, 206.328 482.202, 206.556 " fill="none" stroke="rgb(0, 0, 0)" stroke-linecap="butt" stroke-linejoin="bevel" stroke-opacity="1.0" stroke-width="3.0" />
                <path d=" M 509.067, 206.735 508.987, 196.735 508.907, 186.736 508.902, 186.058 " fill="none" stroke="rgb(0, 0, 0)" stroke-linecap="butt" stroke-linejoin="bevel" stroke-opacity="1.0" stroke-width="3.0" />
                <path d=" M 552.457, 207.024 542.458, 206.958 532.458, 206.891 522.458, 206.824 512.458, 206.758 509.067, 206.735 " fill="none" stroke="rgb(0, 0, 0)" stroke-linecap="butt" stroke-linejoin="bevel" stroke-opacity="1.0" stroke-width="3.0" />
            </g>
        </g>
    </g>
</svg>
