<?xml version="1.0" encoding="UTF-8" standalone="no"?>
<svg xmlns:rdf="http://www.w3.org/1999/02/22-rdf-syntax-ns#" xmlns="http://www.w3.org/2000/svg" height="322pt" width="608pt" version="1.1" xmlns:cc="http://creativecommons.org/ns#" xmlns:dc="http://purl.org/dc/elements/1.1/" viewBox="0 0 608 322">
<g>
<path d="m142.39 5.2363c-22.71 0.7642-45.595 2.6639-67.249 10.059-26.301 13.068-43.174 39.623-52.809 66.609-4.756 14.235-2.436 29.616-7.416 43.786-4.291 14.09-6.6983 28.67-6.2017 43.42-1.1096 30.364-2.7937 61.056 4.7427 90.568 2.0892 11.041 4.1153 22.629 9.7754 32.43 12.076 13.56 31.073 16.183 48.08 17.817 19.582 1.683 39.449-0.0597 58.801 4.4259 12.191 2.5897 24.691 2.9272 36.918 0.38483 13.935-2.7116 28.26 0.28225 42.074-3.4265 18.501-4.6934 37.57-6.3215 56.627-6.5207 13.407-0.83542 28.998-1.445 39.629-10.896 3.6928-3.8432 6.0372-8.7331 8.0059-13.625 40.706-0.13414 81.324-6.5301 122.19-5.24 33.062-0.0154 66.486 1.476 99.057-5.2034 2.9383-0.225 7.2106-0.92405 7.0976 3.082 0.84975 4.0207 7.0159 3.528 10.184 4.9629 13.139 2.7287 26.893 3.2832 40.078 0.74415 6.2578-2.344 6.7217-10.451 7.9043-15.961 0.87579-13.334-1.822-26.756-5.7474-39.458-2.6711-6.4048-5.9565-14.303-13.02-16.722-4.6367 0.91925-11.081 3.0221-13.893-2.4453-8.4166-8.7838-21.678-4.5423-32.314-4.4024-34.278 3.8721-68.241 9.5995-101.68 17.754-38.392 7.4012-77.3 17.13-116.7 13.377 3.661-6.7294-0.9379-15.909-8.8926-15.805-5.7668-1.2741-9.4525-6.5088-11.902-11.504 4.7645-4.3477 13.766-6.6064 13.732-14.287-5.4348-10.776-13.046-20.515-16.203-32.359-5.2299-12.915-11.706-25.499-16.082-38.708-3.8071-1.9432-9.2171-4.2363-8.0847-9.648-0.69-29.321-8.32-61.714-32.09-81.587-27.48-18.848-62.43-20.334-94.63-21.617z" fill="#8cdfe2"/>
<path fill="#05faf9" d="m0 0v0.77969c0.19-0.2 0.5797-0.58969 0.7797-0.77969h-0.7797zm153.94 70.055c-6.2646-0.0038-12.422 2.2688-16.68 7.275-3.52 4.96 2.6903 10.19 6.4203 12.65 15.18 3.19 31.121 0.19 46.111 5-0.6-2.75-1.2803-5.6597-3.1203-7.8797-7.33-2.7-12.081-9.3603-18.761-13.12-4.1606-2.5419-9.0979-3.922-13.97-3.925zm-7.2485 28.05c-1.8937 0.01205-3.7875 0.05656-5.6812 0.14531-4.1 1.29-7.66 4.6097-6.8 9.4797 0.48 6.16-2.2188 14.86 2.5812 19.68 18.6 3.17 37.639 6.1803 56.519 5.1203 2.7-4.6-3.2288-8.01-5.9688-10.9-14.12-10.21-32.8 1.1109-47.77-4.5391 1.84-2.96 5.5891-3.63 8.7891-4 13.73-0.4 27.551 0.48876 41.191-1.5812 1.86-4.74-0.44-9.43-3.1-13.3-13.248 1.295-26.503-0.18904-39.759-0.10469zm-1.2 37.466c-5.84 1.11-12.651 5.8597-12.611 12.38-2.29 4.33 2.1609 6.1803 5.2109 6.1703 10.13 0.05 20.089-3.4606 30.259-1.5906 9.53 1.33 19.059 2.8006 28.509 4.5906 2.61-0.08 1.97 2.9994 2.15 4.7594-10.99-0.91-21.619-4.4703-32.719-4.3203-11.44-0.16-25.12-2.0791-33.75 7.4109l1.1188 9.2c3.59 2.08 8.0406 0.16907 11.891-0.51093 17.58-4.77 36.9 0.0712 53.2 4.5812 2.13 4.74-5.56 4.3997-7.8 2.9297-14.73-4.26-30.14-1.0706-45.13-0.59062-6.69 1.21-16.29 5.87-12.3 14.3 4.93 5.01 12.99 4.8506 19.48 5.1906 13.2-0.05 25.99 3.6403 39.13 4.4203 3.79-0.3 6.86 5.12 3.15 7.45-12.36 1.56-22.89-5.8606-34.65-7.5906-10.18 0.84-21.64 0.80938-30.15 7.3594-0.99 4.17 1.6706 8.7612 4.9906 11.231 23.63-4.67 47.54 0.33907 71.08 2.9891 2.23-2.75 4.1303-6.1897 3.2203-9.9297-2.39-15.09-0.91-30.56-4.35-45.5-1.48-11.37-5.4503-23.3-14.57-30.72-15.07-1.44-30.209-3.1394-45.359-4.2094zm431.61 76.22c-2.1208 0.0469-4.2578 0.35-6.2172 0.7-11.79 3.12-28.25 6.0188-31.73 20.019-1.09 7.89 5.9006 14.531 12.491 17.481 13.97-1.35 29.789-8.5812 42.709 0.11876 0.37-0.2 1.0994-0.60938 1.4594-0.80938 0.04-10.85-1.7988-22.21-7.0188-31.87-2.4406-4.6062-7.0281-5.7422-11.694-5.6391zm-427.37 16.391c-1.9486 0.004-3.8988 0.0575-5.85 0.16875-14.63 6.18-17.639 29.88-3.9391 38.68 4.46 3.6 9.4388 7.1397 15.519 6.6297 17 1.79 33.3-6.2294 46.7-15.909-0.74-1.74-1.96-3.2097-2.9-4.8297 2.83-6.61 11.391-10.64 10.661-18.57-6.05-2.7-13.01-1.7006-19.38-2.8406-13.589-1.0325-27.17-3.3589-40.811-3.3281z"/>
<path fill="#010202" d="m141.53 5.2953c-3.6447 0.00791-7.2828 0.065313-10.908 0.16406-21.65 2.32-44.811 2.6806-64.111 14.041-24.82 18.04-42.938 46.299-47.268 76.809 0.27 23.671-12.561 45.491-10.261 69.271-3.22 29.86-3.8 60.59 3.55 89.95 2.08 11.24 3.9909 22.68 8.6109 33.22 3.72 7.59 11.39 12.2 19.03 15.1 19.7 7.3 41.01 6.7197 61.68 7.2297 13.26-0.19 26.041 3.6797 39.141 4.9797 17.38 3.03 34.439-5.6491 51.809-2.8391 13.01-0.43 25.65-4.0609 38.47-5.9609 23.27-3.96 48.36 0.80031 70.3-9.6297 3.34-1.37 7.2991-5.9591 4.3391-9.3891-5.35-3.73-12.42-5.2306-16.58-10.591-5.25-10.01-2.1303-22.47-7.5703-32.4-4.73-8.68-16.179-8.7894-22.809-15.259-3.77-3.41-9.9406-2.73-13.341-6.65-4.52-9.04-7.0997-19.201-6.6297-29.331 0.76-12.41-2.4303-24.41-4.4203-36.53-5.12-21.56-4.08-43.88-5.15-65.83 0.23-10.19-4.36-19.379-8.9-28.159-10.12-18.66-31.759-27.26-51.489-31.5-32.99-7.14-68.06 0.42969-100.78-4.4703 13.99-10.13 31.879-11.831 48.159-16.141 20.72-3.26 41.93-1.0991 62.43 2.7109 1.53 4.06 6.9703 1.5891 10.12 2.8891 7.22 0.68 13.22 5.0806 20.05 7.0406 20.27 7.22 34.619 24.69 45.409 42.6 5.37 12.43 7.14 26.09 6.9 39.55 2.16 1.74 5.0812 2.3091 7.8312 1.5891 0.11-12.92-1.1706-26.1-5.6906-38.3-5.39-24.07-22.86-45.34-46.4-53.53-24.16-8.2778-50.01-10.69-75.52-10.635zm-44.18 27.974c18.323 0.03227 36.542 3.2762 54.891 3.3812 18.1 2.91 36.139 7.8906 52.259 16.791 11.42 12.21 13.21 29.859 16.43 45.519 3.2 11.67 1.3003 23.951 3.3203 35.811 1.66 19.86 8.0503 39.11 8.3203 59.12-1.46 15.08 4.2303 31.72 16.87 40.73 6.08 3.43 14.15 2.4403 19.4 7.5703 3.33 3.39 7.7497 5.64 10.68 9.4 3.73 9.74 3.5403 20.619 7.4703 30.309 1.62 7.34 11.949 5.26 14.189 12.05-16.79 8.73-36.81 8.0594-54.98 5.6594-9.38-0.77-17.1 5.3112-26.33 4.3812-33.97-1.89-68.32 7.77-101.97-0.05-6.98-0.92-14.239 0.25907-21.059-1.8109-19.29-6.39-40.7-0.47938-59.67-8.2094-9.69-4.26-12.7-15.101-14.58-24.541-5.04-34.02-5.4403-68.54-9.0703-102.72-0.79-7.47 2.3797-14.48 3.2797-21.78 1.15-29.01 8.4197-58.09 22.38-83.67 5.65-8.35 13.01-17 23.17-19.73 3.77 0.03 5.7303-3.11 8.3703-5.05 6.04-2.08 12.46-2.3994 18.77-2.9594 2.6225-0.145 5.2418-0.20617 7.8594-0.20156zm200.88 173.97c-0.2958-0.0245-0.6219 0.0306-0.9844 0.18437-0.83 0.48-1.5906 1.0391-2.2906 1.6891 4.38 7.42 12.24 11.25 19.02 16.05 1.88 1.36 6.8509 1.2603 3.5109-3.3297-1.55-6.6-9.7009-7.1603-14.761-9.3703-1.8025-1.0062-2.4249-5.0517-4.4953-5.2234zm229.91 11.61c-0.45 0.07-1.35 0.22-1.8 0.3-3.28 3.94-1.5303 11.589-2.3203 16.859-4.09 6.49 6.28 6.47 5.9 1.7-0.74-6.27-0.6897-12.649-1.7797-18.859zm-38.676 4.0078c-0.442 0.008-0.89 0.1028-1.3438 0.2828-3.27 5.77-0.3409 15.419-0.9109 22.289 2.4 1.51 4.7806 0.67031 5.7406-1.9797 0.45-6.64-0.5597-13.329-1.3297-19.909-0.7-0.46875-1.4196-0.69599-2.1562-0.6828zm-34.605 8.0125c-0.68 0.05-2.0497 0.16031-2.7297 0.22031-1.06 7.17-1.2397 14.44-1.1797 21.68 2.87 2.57 6.5094-0.0709 6.1594-2.9609-0.06-6.36-0.45-12.809-2.25-18.939zm-37.577 3.8406c-0.5976-0.0301-1.3112 0.0909-2.1625 0.39844-0.67 7.27-0.9097 14.58-1.1297 21.87 8.4 3.38 5.5894-6.8694 6.2094-10.959-0.2362-3.4475 1.2659-11.099-2.9172-11.309zm-38.133 4.0188c-3 6.75-1.4797 14.67-1.9297 21.87 1.48 0.46 3.0897 0.70969 4.5297-0.0203 0.64-7.1 0.4797-14.25 0.2297-21.35-0.7-0.13-2.1197-0.37-2.8297-0.5zm-36.98 3.42c-0.69 7.2-1.5609 14.39-1.9609 21.62 1.5 0.24 3.0712 0.33031 4.5312-0.17969 0.63-7.11 0.4488-14.271 0.2688-21.381-0.71-0.02-2.1291-0.0494-2.8391-0.0594z"/>
<path fill="#d2fbd2" d="m101.88 70.831c-1.2397-0.05734-2.4053 0.18906-3.1828 0.83906-11.48 1.81-21.929 7.15-32.609 11.4-10.69 4.71-21.64 18.88-11.95 29.72 8.22 5.75 18.73 8.13 25.6 15.8 0.54 2.86-0.8003 5.4591-2.4703 7.5891-10.1 12.86-23.28 22.89-32.98 36.1-3.41 4-7.5706 10.74-3.2406 15.58 8.32 7.12 20.02 10.86 25.68 20.65 0.89 10.78-8.57 18.931-9.65 29.261 1.67 6.14 9.5303 1.6791 13.57-0.0109 13.14-12.49 11.291-34.67 0.1406-47.83-5.09-2.47-11.28-1.0894-16.52-3.0094-3.82-2.33-2.1406-7.56 0.3594-10.3 9.2-11.05 19.241-21.38 29.311-31.63 4.33-5.03 9.2-11.701 6.2-18.611-4.13-11.7-18.441-14-24.881-23.8-2.74-4.45 0.25-9.8194 4.4-12.009 11.32-6.76 23.81-11.5 36.85-13.68 3.4725-2.9775-0.9075-5.8873-4.6266-6.0594zm0.411 2.0656c1.3211 0.01182 2.2484 0.68594 2.7859 2.0234-12.46 2.16-24.27 6.8491-35.45 12.639-3.81 3.01-9.76 7.03-8.1 12.75 5 12.92 21.67 15.341 27.48 27.711 1.57 3.28-0.3491 6.9194-2.2891 9.5594-10.47 13.48-23.71 24.51-34.45 37.73-2.22 3.41-4.81 8.3309-1.7 12.011 5.42 6.88 17.449-0.61969 21.389 7.7703 5.38 7.74 5.4209 17.6 5.1109 26.65-1.4 8.77-8.5797 16.95-17.88 17.23 1.04-11.15 11.3-19.62 9.75-31.27-3.66-8.41-13-11.491-19.85-16.741-3.34-2.33-10.061-5.7088-7.0312-10.819 9.12-16.17 24.77-27.401 36.55-41.511 2.2-3.26 5.9706-6.76 5.1406-11.1-8.27-6.53-18.051-10.829-27.141-16.089-5.3-3.05-5.41-10.88-1.65-15.25 10.02-14.56 29.071-17.25 44.531-22.6 1.0763-0.46875 2.0104-0.70084 2.8032-0.69375zm449.35 133.95c-16.07-0.0117-31.846 3.8206-47.714 6.1281-50 9.88-100.83 14.329-151.03 22.989-14.13 0.83-28.46 3.71-42.52 1.5-2.94 10.5-8.1297 22.19-4.1797 33 10.91 2.51 22.2 1.56 33.28 1.15 45.07-2.2 90.37 1.8009 135.33-2.8891 14.85-3.14 30.01-4.1703 45.07-5.9203 14.35-2.21 29.35 0.25969 43.22-4.9203-0.55-2.14-2.7106-2.7891-4.5406-3.3891-11.49 3.28-23.539-5.45-23.869-17.3-2.55-12.57 9.0897-22.291 20.13-25.191 2.74-1.34 5.47-2.7503 8-4.4703-3.7444-0.47813-7.4682-0.6848-11.176-0.68751zm-23.5 12c1.09 6.21 1.0397 12.589 1.7797 18.859 0.38 4.77-9.99 4.79-5.9-1.7 0.79-5.27-0.9597-12.919 2.3203-16.859 0.45-0.08 1.35-0.23 1.8-0.3zm-11.538 1.0062c4.1245-0.0773 1.94 8.0984 2.6469 10.953 0.78 2.75-2.71 2.9912-4.6 3.1312 0.07-4.6-0.1306-9.2212 0.4594-13.781 0.5718-0.19969 1.0671-0.29513 1.4937-0.30313zm-9.4625 1.0844c5.9-0.2 2.55 9.9688 3.75 13.969-6.94 1.98-6.19-10.239-3.75-13.969zm-26.14 1.91c1.01 4.87 1.9303 9.8894 1.7203 14.909-7.7 2.41-5.8797-11.229-3.4797-14.559 0.44-0.09 1.3194-0.27 1.7594-0.35zm8.4641 0.008c0.7366-0.0132 1.4562 0.21405 2.1562 0.6828 0.77 6.58 1.7797 13.269 1.3297 19.909-0.96 2.65-3.3406 3.4897-5.7406 1.9797 0.57-6.87-2.3591-16.519 0.9109-22.289 0.4538-0.18 0.9018-0.2749 1.3438-0.2828zm11.045 0.16249c2.79 1.15 1.2803 9.8491 1.4203 13.889-2.56-0.07-7.3603 1.0803-4.0703-4.8797 0.57-2.84-1.76-8.2594 2.65-9.0094zm-29.589 1.65c3.09 2.26 6 14.19 0.1 14.42-1.8-4.42-1.78-9.9003-0.1-14.42zm-8.3062 2.5797c3.4335 0.0552 6.3284 14.312-0.7047 13.759-0.43-4.25-2.7597-10.609 0.3703-13.719 0.1115-0.0288 0.2236-0.0424 0.3344-0.0406zm-7.7547 3.6203c1.8 6.13 2.19 12.579 2.25 18.939 0.35 2.89-3.2894 5.5309-6.1594 2.9609-0.06-7.24 0.1197-14.51 1.1797-21.68 0.68-0.06 2.0497-0.17031 2.7297-0.22031zm-10.57 0.12813c2.2715-0.0867 4.2928 0.26843 1.8703 4.9109 0.53 2.64 0.6603 10.321-4.2297 7.9406-0.07-4.26-0.3191-8.5194 0.1609-12.759 0.6575 0.015 1.4413-0.0633 2.1985-0.0922zm-9.0188 0.12187c5.2-0.23 2.4791 9.5494 2.3891 13.409-7.86 3.33-4.3691-10.989-2.3891-13.409zm-8.1297 0.62969c3.77 1.73 0.9891 8.83 1.9391 12.2 0.88 2.66-3.3594 2.79-4.0094 0.7 0.26-4.23-0.4197-9.17 2.0703-12.9zm-19.93 2.93c3.12 1.45 4.6597 15.03-2.0703 13.48 0.56-4.43-0.5597-9.5597 2.0703-13.48zm10.083 0.0312c4.1831 0.21082 2.681 7.8619 2.9172 11.309-0.62 4.09 2.1906 14.339-6.2094 10.959 0.22-7.29 0.4597-14.6 1.1297-21.87 0.8513-0.30751 1.5649-0.42856 2.1625-0.39844zm-19.142 1.3297c4.44-0.23 5.6388 14.9-1.1312 12.85 0.13-4.29-0.069-8.69 1.1312-12.85zm-9.1203 0.78907c5.48 0.6 3.5691 9.6597 1.9391 13.33-6.3-0.06-1.3991-9.8497-1.9391-13.33zm-9.8703 1.9c0.71 0.13 2.1297 0.37 2.8297 0.5 0.25 7.1 0.4103 14.25-0.2297 21.35-1.44 0.73-3.0497 0.48031-4.5297 0.0203 0.45-7.2-1.0703-15.12 1.9297-21.87zm-8.9828 1.2047c4.2915-0.23837 0.6922 7.2953 1.8734 9.8359 0.73 2.79-1.4903 3.68-3.8703 3-0.25-4.24 0.2797-8.5097 1.0297-12.68 0.36-0.0888 0.6811-0.14036 0.9672-0.15624zm-36.938 1.9562c0.71 0.09 2.14 0.26938 2.85 0.35938-1.13 3.89 3.2897 14.53-4.0203 12.65-0.28-4.36-0.07-8.7994 1.1703-13.009zm-8.0891 0.0594c5.04 0.77 2.6294 10.03 1.8094 14.15-5.75-0.68-3.0794-10.02-1.8094-14.15zm17.03 0.2c0.71 0.01 2.1291 0.0394 2.8391 0.0594 0.18 7.11 0.3612 14.271-0.2688 21.381-1.46 0.51-3.0312 0.41969-4.5312 0.17969 0.4-7.23 1.2709-14.42 1.9609-21.62z"/>
<path fill="#f40304" d="m102.29 72.897c-0.7928-0.0071-1.7269 0.225-2.8032 0.69375-15.46 5.35-34.511 8.04-44.531 22.6-3.76 4.37-3.65 12.2 1.65 15.25 9.09 5.26 18.871 9.5591 27.141 16.089 0.83 4.34-2.9406 7.84-5.1406 11.1-11.78 14.11-27.43 25.341-36.55 41.511-3.03 5.11 3.6912 8.4888 7.0312 10.819 6.85 5.25 16.19 8.3306 19.85 16.741 1.55 11.65-8.71 20.12-9.75 31.27 9.3-0.28 16.48-8.4597 17.88-17.23 0.31-9.05 0.2691-18.91-5.1109-26.65-3.94-8.39-15.969-0.89031-21.389-7.7703-3.11-3.68-0.52-8.6009 1.7-12.011 10.74-13.22 23.98-24.25 34.45-37.73 1.94-2.64 3.8591-6.2794 2.2891-9.5594-5.81-12.37-22.48-14.791-27.48-27.711-1.66-5.72 4.29-9.74 8.1-12.75 11.18-5.79 22.99-10.479 35.45-12.639-0.5375-1.3375-1.4648-2.0116-2.7859-2.0234zm158.83 47.347c-1.2263-0.0435-2.4484 0.007-3.6484 0.15625-8.39 0-4.65 8.6794-4.65 14.159-2.23-0.04-4.4403-0.34907-6.6703-0.38907-2.68 8.12-0.09 16.91 0.45 25.17 2.8 16.36 5.4812 33.439 14.431 47.759 1.4 4.58 8.0791 3.2097 10.789 1.8797 5.4-11.83-6.93-19.93-11-29.77-4.4-9.31-11.839-21.929-6.1391-31.389 6.06 15.15 11.09 31.139 21.4 44.089 3.15 3.68 5.15 9.1906 9.9 10.991 6.14-3.75 14.049-6.6203 17.919-12.87-11.22-17.07-16.229-37.04-22.739-56.15-2.6775-8.4-11.458-13.331-20.042-13.636zm-228.86 129.1c-0.696 0.0189-1.5919 0.3225-2.7844 1.0406-2.3 14.23 7.8909 26.641 20.011 32.391 6.42 1.46 13.04 2.0003 19.55 2.9703-0.19-1.22 0.4294-2.9609-0.7906-3.7609-7.75-4.87-16.96-6.6891-25.35-9.9391-2.5-5.36-1.6694-12.081-4.9594-17.231-3.3962-0.26813-2.6607-5.5521-5.6765-5.4703z"/>
<path d="m149.72 65.459c-0.78392 0.01377-1.5703 0.05094-2.3578 0.11094-6.32-0.51-11.809 4.6091-13.459 10.439-1.85 8.34-5.6406 16.09-7.5906 24.4-4.55 36.76-6.57 74.151-0.4 110.91 0.88 17.04-1.7797 34.45 2.6703 51.18 1.4 5.03 0.96 12.34 7.75 13.25 21.01 7.6 44.281 2.6403 65.241-2.9797 6.02-9.43 14.15-18.37 15.22-30.02 2.28-10.94-1.66-21.92-0.25-32.92-0.09-8.5-0.68032-17.1-3.2203-25.25-3.86-14.21-0.06-29.669-6.7703-43.189-3.77-11.7-9.9006-22.83-10.291-35.4 0.85-4.93-2.9887-8.3609-6.4687-11.011-14.99-4.81-30.931-1.81-46.111-5-3.73-2.46-9.9403-7.69-6.4203-12.65 7.57-8.9 21.14-9.16 30.65-3.35 6.68 3.76 11.431 10.42 18.761 13.12 0.89-3.91-1.6006-7.7394-4.4406-10.209-9.45-6.75-20.754-11.638-32.512-11.431zm-3.0266 32.645c13.256-0.08435 26.512 1.3997 39.759 0.10469 2.66 3.87 4.96 8.56 3.1 13.3-13.64 2.07-27.461 1.1812-41.191 1.5812-3.2 0.37-6.949 1.04-8.789 4 14.97 5.65 33.65-5.6709 47.77 4.5391 2.74 2.89 8.6687 6.3 5.9687 10.9-18.88 1.06-37.919-1.9503-56.519-5.1203-4.8-4.82-2.1013-13.52-2.5813-19.68-0.86-4.87 2.7-8.1897 6.8-9.4797 1.8937-0.08875 3.7876-0.13326 5.6813-0.14531zm118.19 17.105c-0.57952-0.007-1.159-0.006-1.7375 0.003-1.5427 0.0239-3.0787 0.10032-4.5938 0.20781-12.43-1.68-18.11 11.48-17.7 21.7-1.21 17.15 2.4103 34.01 6.4703 50.53 4.13 10.55 9.3697 20.639 13.23 31.309 11.77-0.83 22.96-6.0794 32.32-13.109 6.19-4.83 14.93-7.9003 17.88-15.82-5.54-10.71-13.72-20.149-16.62-32.139-5.83-13.61-11.79-27.191-17.33-40.911-3.7997-1.26-7.8622-1.7223-11.919-1.7703zm-3.7531 5.0344c8.5842 0.30447 17.365 5.2359 20.042 13.636 6.51 19.11 11.519 39.08 22.739 56.15-3.87 6.25-11.779 9.1203-17.919 12.87-4.75-1.8-6.75-7.3106-9.9-10.991-10.31-12.95-15.34-28.939-21.4-44.089-5.7 9.46 1.739 22.079 6.139 31.389 4.07 9.84 16.4 17.94 11 29.77-2.71 1.33-9.389 2.7003-10.789-1.8797-8.95-14.32-11.631-31.399-14.431-47.759-0.54-8.26-3.13-17.05-0.45-25.17 2.23 0.04 4.4403 0.34907 6.6703 0.38907 0-5.48-3.74-14.159 4.65-14.159 1.2-0.14875 2.4222-0.19974 3.6485-0.15625zm-115.64 15.327c15.15 1.07 30.289 2.7694 45.359 4.2094 9.12 7.42 13.09 19.35 14.57 30.72 3.44 14.94 1.96 30.41 4.35 45.5 0.91 3.74-0.99032 7.1797-3.2203 9.9297-23.54-2.65-47.45-7.6591-71.08-2.9891-3.32-2.47-5.9806-7.0612-4.9906-11.231 8.51-6.55 19.97-6.5194 30.15-7.3594 11.76 1.73 22.29 9.1506 34.65 7.5906 3.71-2.33 0.64-7.75-3.15-7.45-13.14-0.78-25.93-4.4703-39.13-4.4203-6.49-0.34-14.55-0.18062-19.48-5.1906-3.99-8.43 5.61-13.09 12.3-14.3 14.99-0.48 30.4-3.6694 45.13 0.59062 2.24 1.47 9.93 1.8103 7.8-2.9297-16.3-4.51-35.62-9.3512-53.2-4.5812-3.85 0.68-8.3006 2.5909-11.891 0.51093l-1.1187-9.2c8.63-9.49 22.31-7.5709 33.75-7.4109 11.1-0.15 21.729 3.4103 32.719 4.3203-0.18-1.76 0.46-4.8394-2.15-4.7594-9.45-1.79-18.979-3.2606-28.509-4.5906-10.17-1.87-20.129 1.6406-30.259 1.5906-3.05 0.01-7.501-1.8403-5.211-6.1703-0.04-6.52 6.771-11.27 12.611-12.38zm402.6 62.234c-8.0535 0.0708-16.376 1.7869-24.086 2.6359-54.93 6.31-108.21 21.589-162.81 29.889-18.01 1.31-36.431-0.61-54.011 4.55-4.56 4.48-3.7203 11.431-5.1203 17.241-1.33 9.08-4.719 19.969 3.261 27.259 32.1 2.64 64.16-2.3294 96.27-2.6094 47.7-5.33 96.6 3.6291 143.63-8.6109 9.22-2.84 19.519-1.6488 28.209-6.2688-8.2-3.24-17.18-0.39-25.45 0.95-7.29 1.92-14.77-0.39062-22.13 0.90938-16.5 1.73-33.061 3.03-49.441 5.7-54.74 7.08-110.09 1.2206-165.04 4.5406-2.4 0.33-3.8703-1.9012-5.1703-3.5312-3.95-10.81 1.2397-22.5 4.1797-33 14.06 2.21 28.39-0.67 42.52-1.5 50.2-8.66 101.03-13.109 151.03-22.989 19.94-6.46 41.001-8.04 61.861-6.85 2.02 0.6 2.3887-1.1697 2.6687-2.7297-5.6963-4.0644-12.119-5.4455-18.767-5.5781-0.53424-0.0107-1.0693-0.0125-1.6062-0.008zm29.964 8.5141c-7.5099-0.0345-16.018 4.5459-23.23 5.6812-11.04 2.9-22.68 12.621-20.13 25.191 0.33 11.85 12.379 20.58 23.869 17.3 8.34-1.37 16.76-3.1109 25.27-2.2109 5.67 1.69 11.76 6.6109 10.85 13.161-1.73 4.41-5.8094 8.2688-10.609 9.0188-13.18 1.59-26.371-0.93907-39.561-0.48907-1.85-0.29-2.3694 1.3891-2.9594 2.7391 13.39 1.29 26.65 4.2906 40.15 4.1406 6.23-0.58 15.049-1.47 16.609-8.95 3.4-20.21 1.7906-42.97-9.6094-60.57-3.0559-3.7091-6.7162-4.9929-10.65-5.0109zm-0.95312 5.4719c4.6656-0.10316 9.2531 1.0328 11.694 5.6391 5.22 9.66 7.0587 21.02 7.0187 31.87-0.36 0.2-1.0894 0.60938-1.4594 0.80938-12.92-8.7-28.739-1.4688-42.709-0.11876-6.59-2.95-13.581-9.5912-12.491-17.481 3.48-14 19.94-16.899 31.73-20.019 1.9594-0.35 4.0964-0.65308 6.2172-0.7zm-60.494 8.0656c-0.42656 0.008-0.92192 0.10344-1.4938 0.30313-0.59 4.56-0.38936 9.1812-0.45936 13.781 1.89-0.14 5.38-0.38124 4.6-3.1312-0.70688-2.8547 1.4776-11.03-2.6469-10.953zm-9.4625 1.0844c-2.44 3.73-3.19 15.949 3.75 13.969-1.2-4 2.15-14.169-3.75-13.969zm-26.15 1.92c-0.44 0.08-1.3194 0.26-1.7594 0.35-2.4 3.33-4.2203 16.969 3.4797 14.559 0.21-5.02-0.71-10.04-1.72-14.91zm19.509 0.17031c-4.41 0.75-2.08 6.1694-2.65 9.0094-3.29 5.96 1.5103 4.8097 4.0703 4.8797-0.14-4.04 1.3697-12.739-1.4203-13.889zm-29.589 1.65c-1.68 4.52-1.7 10 0.1 14.42 5.9-0.23 2.99-12.16-0.1-14.42zm-8.3062 2.5797c-0.1108-0.002-0.22288 0.0119-0.3344 0.0406-3.13 3.11-0.80032 9.4688-0.37032 13.719 7.0331 0.55217 4.1382-13.704 0.70472-13.759zm-312.88 0.93125c13.64-0.0308 27.222 2.2956 40.811 3.3281 6.37 1.14 13.33 0.14062 19.38 2.8406 0.73 7.93-7.831 11.96-10.661 18.57 0.94 1.62 2.16 3.0897 2.9 4.8297-13.4 9.68-29.7 17.699-46.7 15.909-6.08 0.51-11.059-3.0297-15.519-6.6297-13.7-8.8-10.691-32.5 3.939-38.68 1.9512-0.11125 3.9014-0.16435 5.85-0.16875zm295.39 2.8125c-0.26792-0.0105-0.54736-0.006-0.83128 0.005-0.7572 0.0289-1.5409 0.10717-2.1984 0.0922-0.48 4.24-0.23096 8.4994-0.16096 12.759 4.89 2.38 4.7597-5.3006 4.2297-7.9406 2.1197-4.0622 0.83648-4.8423-1.039-4.9156zm-9.85 0.12656c-1.98 2.42-5.471 16.739 2.389 13.409 0.09-3.86 2.811-13.639-2.389-13.409zm-8.1297 0.62969c-2.49 3.73-1.8103 8.67-2.0703 12.9 0.65 2.09 4.8894 1.96 4.0094-0.7-0.95-3.37 1.831-10.47-1.939-12.2zm-19.94 2.93c-2.63 3.92-1.5103 9.0497-2.0703 13.48 6.73 1.55 5.1903-12.03 2.0703-13.48zm-9.0594 1.3609c-1.2 4.16-1.0013 8.56-1.1313 12.85 6.77 2.05 5.5713-13.08 1.1313-12.85zm-9.1203 0.78907c0.54 3.48-4.361 13.27 1.939 13.33 1.63-3.67 3.541-12.73-1.939-13.33zm-18.853 3.1047c-0.28608 0.0159-0.6072 0.0675-0.9672 0.15624-0.75 4.17-1.2797 8.4397-1.0297 12.68 2.38 0.68 4.6003-0.21 3.8703-3-1.1812-2.5406 2.4181-10.074-1.8734-9.8359zm-10.23 0.675c-1.24 4.21-1.4503 8.6509-1.1703 13.011 7.31 1.88 2.8903-8.76 4.0203-12.65-0.71-0.09-2.14-0.27093-2.85-0.36093zm-8.0906 0.0609c-1.27 4.13-3.9406 13.47 1.8094 14.15 0.82-4.12 3.2306-13.38-1.8094-14.15zm-18.617 1.2203c-1.24 4.21-1.4503 8.6494-1.1703 13.009 7.31 1.88 2.8903-8.76 4.0203-12.65-0.71-0.09-2.14-0.26938-2.85-0.35938zm-8.089 0.0594c-1.27 4.13-3.9406 13.47 1.8094 14.15 0.82-4.12 3.2306-13.38-1.8094-14.15z" fill="#040a55"/>
</g>
</svg>
