<svg width="319" height="233" xmlns="http://www.w3.org/2000/svg">
 <defs>
  <clipPath clipPathUnits="userSpaceOnUse" id="imagebot_9">
   <path d="M0.06,792L612.06,792L612.06,0L0.06,0L0.06,792z" id="imagebot_31"/>
  </clipPath>
 </defs>
 <g label="58294main_The.Brain.in.Space" id="imagebot_2">
  <path transform="matrix(1.19876, 0, 0, -1.19876, -80.56, 355.03)" label="58294main_The.Brain.in.Space" clip-path="url(#imagebot_9)" stroke="#231f20" stroke-miterlimit="3.864" stroke-dasharray="8.56, 4.28" stroke-width="3.234" fill="none" d="M251.00999,237.32001S240.18499,261.40901 199.26199,259.95901C158.33999,258.50901 76.97199,217.92801 89.30199,182.33801C98.26099,156.464 124.87899,166.166 124.87899,182.33801C124.87899,194.224 109.78599,198.717 105.47299,188.80601C101.16099,178.895 114.96799,171.557 131.34699,166.16601C147.72699,160.77601 220.70099,146.51601 221.90599,145.80901" id="imagebot_16"/>
  <path transform="matrix(1.19876, 0, 0, -1.19876, -80.56, 355.03)" label="58294main_The.Brain.in.Space" clip-path="url(#imagebot_9)" fill="#231f20" d="M224.75999,153.60001L246.90199,127.97901L253.49599,129.42901L225.33999,156.46301L224.75999,153.60001" id="imagebot_15"/>
  <path transform="matrix(1.19876, 0, 0, -1.19876, -80.56, 355.03)" label="58294main_The.Brain.in.Space" clip-path="url(#imagebot_9)" fill="#231f20" d="M250.06,155.00999L214.112,135.76799L214.982,130.00599L250.05999,152.43799L250.05999,155.00999" id="imagebot_14"/>
  <path transform="matrix(1.19876, 0, 0, -1.19876, -80.56, 355.03)" label="58294main_The.Brain.in.Space" clip-path="url(#imagebot_9)" fill="#231f20" d="M249.48,225.78999C249.48,230.23299 253.082,233.83499 257.525,233.83499S265.569,230.23299 265.569,225.78999S261.968,217.74599 257.525,217.74599S249.48,221.34699 249.48,225.78999" id="imagebot_13"/>
  <title>58294main_The.Brain.in.Space</title>
 </g>
 <metadata>image/svg+xmlOpenclipart58294main_The.Brain.in.Space-page-101-map2010-04-06T07:38:23This is clipart converted and broken apart that has been released into the public domain because the document says so, and its from NASA, a USA government agency. The publication is called "The Brain in Space:"\n\nhttp://www.nasa.gov/audience/foreducators/topnav/materials/listbytype/The.Brain.in.Space.htmlhttps://openclipart.org/detail/38395/-by-rejon-38395rejonastronomybrainconvertedgovernmentnasasciencespaceusa</metadata>
</svg>